<mxfile host="app.diagrams.net" modified="2023-11-07T15:40:02.870Z" agent="Mozilla/5.0 (X11; Linux x86_64; rv:109.0) Gecko/20100101 Firefox/119.0" etag="0uzkFkt9SmIHPT6vaNbG" version="22.0.8" type="device">
  <diagram name="Page-1" id="5udjnu8SRqorm139ejqs">
    <mxGraphModel dx="755" dy="862" grid="1" gridSize="10" guides="1" tooltips="1" connect="1" arrows="1" fold="1" page="1" pageScale="1" pageWidth="850" pageHeight="1100" math="0" shadow="0">
      <root>
        <mxCell id="0" />
        <mxCell id="1" parent="0" />
        <mxCell id="YdkBwuoA39NBtErjTNVp-81" value="DataBase&amp;nbsp; " style="rounded=1;whiteSpace=wrap;html=1;fillColor=#ffcc99;strokeColor=#FF8000;strokeWidth=2;labelBackgroundColor=none;fontStyle=0;fontSize=18;fontFamily=JetBrains Mono;fontSource=https%3A%2F%2Ffonts.googleapis.com%2Fcss%3Ffamily%3DJetBrains%2BMono;align=right;verticalAlign=top;fontColor=#CC6600;" vertex="1" parent="1">
          <mxGeometry x="50" y="790" width="160" height="210" as="geometry" />
        </mxCell>
        <mxCell id="4w2omp_RsOo7fkGFhtTQ-5" value="" style="sketch=0;outlineConnect=0;fontColor=#232F3E;gradientColor=none;fillColor=#67AB9F;strokeColor=none;dashed=0;verticalLabelPosition=bottom;verticalAlign=top;align=center;html=1;fontSize=12;fontStyle=0;aspect=fixed;pointerEvents=1;shape=mxgraph.aws4.iot_thing_humidity_sensor;fontFamily=JetBrains Mono;fontSource=https%3A%2F%2Ffonts.googleapis.com%2Fcss%3Ffamily%3DJetBrains%2BMono;" parent="1" vertex="1">
          <mxGeometry x="1430" y="1195.5" width="100" height="100" as="geometry" />
        </mxCell>
        <mxCell id="4w2omp_RsOo7fkGFhtTQ-6" value="" style="sketch=0;outlineConnect=0;fontColor=#232F3E;gradientColor=none;fillColor=#67AB9F;strokeColor=none;dashed=0;verticalLabelPosition=bottom;verticalAlign=top;align=center;html=1;fontSize=12;fontStyle=0;aspect=fixed;pointerEvents=1;shape=mxgraph.aws4.iot_thing_temperature_sensor;fontFamily=JetBrains Mono;fontSource=https%3A%2F%2Ffonts.googleapis.com%2Fcss%3Ffamily%3DJetBrains%2BMono;" parent="1" vertex="1">
          <mxGeometry x="1323.25" y="1195.5" width="100" height="100" as="geometry" />
        </mxCell>
        <mxCell id="4w2omp_RsOo7fkGFhtTQ-7" value="" style="sketch=0;outlineConnect=0;fontColor=#232F3E;gradientColor=none;fillColor=#67AB9F;strokeColor=none;dashed=0;verticalLabelPosition=bottom;verticalAlign=top;align=center;html=1;fontSize=12;fontStyle=0;aspect=fixed;pointerEvents=1;shape=mxgraph.aws4.iot_thing_vibration_sensor;fontFamily=JetBrains Mono;fontSource=https%3A%2F%2Ffonts.googleapis.com%2Fcss%3Ffamily%3DJetBrains%2BMono;" parent="1" vertex="1">
          <mxGeometry x="1323.25" y="1300.5" width="100" height="100" as="geometry" />
        </mxCell>
        <mxCell id="4w2omp_RsOo7fkGFhtTQ-10" value="" style="sketch=0;outlineConnect=0;fontColor=#232F3E;gradientColor=none;fillColor=#67AB9F;strokeColor=none;dashed=0;verticalLabelPosition=bottom;verticalAlign=top;align=center;html=1;fontSize=12;fontStyle=0;aspect=fixed;pointerEvents=1;shape=mxgraph.aws4.camera;fontFamily=JetBrains Mono;fontSource=https%3A%2F%2Ffonts.googleapis.com%2Fcss%3Ffamily%3DJetBrains%2BMono;" parent="1" vertex="1">
          <mxGeometry x="1430" y="1300.5" width="100" height="100" as="geometry" />
        </mxCell>
        <mxCell id="4w2omp_RsOo7fkGFhtTQ-11" value="" style="sketch=0;outlineConnect=0;fontColor=#232F3E;gradientColor=none;fillColor=#EA6B66;strokeColor=none;dashed=0;verticalLabelPosition=bottom;verticalAlign=top;align=center;html=1;fontSize=12;fontStyle=0;aspect=fixed;pointerEvents=1;shape=mxgraph.aws4.door_lock;fontFamily=JetBrains Mono;fontSource=https%3A%2F%2Ffonts.googleapis.com%2Fcss%3Ffamily%3DJetBrains%2BMono;" parent="1" vertex="1">
          <mxGeometry x="1510" y="1095.5" width="100" height="100" as="geometry" />
        </mxCell>
        <mxCell id="4w2omp_RsOo7fkGFhtTQ-12" value="" style="sketch=0;outlineConnect=0;fontColor=#232F3E;gradientColor=none;fillColor=#EA6B66;strokeColor=none;dashed=0;verticalLabelPosition=bottom;verticalAlign=top;align=center;html=1;fontSize=12;fontStyle=0;aspect=fixed;pointerEvents=1;shape=mxgraph.aws4.lightbulb;fontFamily=JetBrains Mono;fontSource=https%3A%2F%2Ffonts.googleapis.com%2Fcss%3Ffamily%3DJetBrains%2BMono;" parent="1" vertex="1">
          <mxGeometry x="1510" y="990.5" width="100" height="100" as="geometry" />
        </mxCell>
        <mxCell id="4w2omp_RsOo7fkGFhtTQ-13" value="" style="sketch=0;outlineConnect=0;fontColor=#232F3E;gradientColor=none;fillColor=#EA6B66;strokeColor=none;dashed=0;verticalLabelPosition=bottom;verticalAlign=top;align=center;html=1;fontSize=12;fontStyle=0;aspect=fixed;pointerEvents=1;shape=mxgraph.aws4.thermostat;fontFamily=JetBrains Mono;fontSource=https%3A%2F%2Ffonts.googleapis.com%2Fcss%3Ffamily%3DJetBrains%2BMono;" parent="1" vertex="1">
          <mxGeometry x="1620" y="1095.5" width="100" height="100" as="geometry" />
        </mxCell>
        <mxCell id="4w2omp_RsOo7fkGFhtTQ-14" value="" style="sketch=0;outlineConnect=0;fontColor=#232F3E;gradientColor=none;fillColor=#EA6B66;strokeColor=none;dashed=0;verticalLabelPosition=bottom;verticalAlign=top;align=center;html=1;fontSize=12;fontStyle=0;aspect=fixed;pointerEvents=1;shape=mxgraph.aws4.utility;fontFamily=JetBrains Mono;fontSource=https%3A%2F%2Ffonts.googleapis.com%2Fcss%3Ffamily%3DJetBrains%2BMono;" parent="1" vertex="1">
          <mxGeometry x="1730" y="1095.5" width="100" height="100" as="geometry" />
        </mxCell>
        <mxCell id="4w2omp_RsOo7fkGFhtTQ-15" value="" style="sketch=0;outlineConnect=0;fontColor=#232F3E;gradientColor=none;fillColor=#EA6B66;strokeColor=none;dashed=0;verticalLabelPosition=bottom;verticalAlign=top;align=center;html=1;fontSize=12;fontStyle=0;aspect=fixed;pointerEvents=1;shape=mxgraph.aws4.generic;fontFamily=JetBrains Mono;fontSource=https%3A%2F%2Ffonts.googleapis.com%2Fcss%3Ffamily%3DJetBrains%2BMono;" parent="1" vertex="1">
          <mxGeometry x="1730" y="990.5" width="100" height="100" as="geometry" />
        </mxCell>
        <mxCell id="4w2omp_RsOo7fkGFhtTQ-34" value="" style="sketch=0;outlineConnect=0;fontColor=#232F3E;gradientColor=none;fillColor=#EA6B66;strokeColor=none;dashed=0;verticalLabelPosition=bottom;verticalAlign=top;align=center;html=1;fontSize=12;fontStyle=0;aspect=fixed;pointerEvents=1;shape=mxgraph.aws4.lightbulb;fontFamily=JetBrains Mono;fontSource=https%3A%2F%2Ffonts.googleapis.com%2Fcss%3Ffamily%3DJetBrains%2BMono;" parent="1" vertex="1">
          <mxGeometry x="1620" y="990.5" width="100" height="100" as="geometry" />
        </mxCell>
        <mxCell id="4w2omp_RsOo7fkGFhtTQ-35" value="" style="whiteSpace=wrap;html=1;strokeColor=none;fillColor=#FFFFFF;fontFamily=JetBrains Mono;fontSource=https%3A%2F%2Ffonts.googleapis.com%2Fcss%3Ffamily%3DJetBrains%2BMono;" parent="1" vertex="1">
          <mxGeometry x="1640" y="1010.5" width="60" height="65" as="geometry" />
        </mxCell>
        <mxCell id="4w2omp_RsOo7fkGFhtTQ-39" value="" style="html=1;verticalLabelPosition=bottom;align=center;labelBackgroundColor=#ffffff;verticalAlign=top;strokeWidth=2;strokeColor=#EA6B66;shadow=0;dashed=0;shape=mxgraph.ios7.icons.note;pointerEvents=1;fillColor=#EA6B66;fontFamily=JetBrains Mono;fontSource=https%3A%2F%2Ffonts.googleapis.com%2Fcss%3Ffamily%3DJetBrains%2BMono;" parent="1" vertex="1">
          <mxGeometry x="1640" y="1013" width="60" height="55" as="geometry" />
        </mxCell>
        <mxCell id="4w2omp_RsOo7fkGFhtTQ-31" value="" style="sketch=0;outlineConnect=0;fontColor=#232F3E;gradientColor=none;fillColor=#67AB9F;strokeColor=none;dashed=0;verticalLabelPosition=bottom;verticalAlign=top;align=center;html=1;fontSize=12;fontStyle=0;aspect=fixed;pointerEvents=1;shape=mxgraph.aws4.camera;fontFamily=JetBrains Mono;fontSource=https%3A%2F%2Ffonts.googleapis.com%2Fcss%3Ffamily%3DJetBrains%2BMono;" parent="1" vertex="1">
          <mxGeometry x="1323.25" y="1410.5" width="100" height="100" as="geometry" />
        </mxCell>
        <mxCell id="4w2omp_RsOo7fkGFhtTQ-32" value="" style="whiteSpace=wrap;html=1;strokeColor=none;fontFamily=JetBrains Mono;fontSource=https%3A%2F%2Ffonts.googleapis.com%2Fcss%3Ffamily%3DJetBrains%2BMono;" parent="1" vertex="1">
          <mxGeometry x="1337.5" y="1425.5" width="70" height="65" as="geometry" />
        </mxCell>
        <mxCell id="4w2omp_RsOo7fkGFhtTQ-30" value="" style="sketch=0;pointerEvents=1;shadow=0;dashed=0;html=1;strokeColor=none;fillColor=#67AB9F;labelPosition=center;verticalLabelPosition=bottom;verticalAlign=top;outlineConnect=0;align=center;shape=mxgraph.office.concepts.clock;direction=east;fontFamily=JetBrains Mono;fontSource=https%3A%2F%2Ffonts.googleapis.com%2Fcss%3Ffamily%3DJetBrains%2BMono;" parent="1" vertex="1">
          <mxGeometry x="1342.75" y="1433.63" width="59.5" height="53.75" as="geometry" />
        </mxCell>
        <mxCell id="YdkBwuoA39NBtErjTNVp-1" value="&lt;div style=&quot;font-size: 18px;&quot;&gt;&lt;font color=&quot;#6600cc&quot;&gt;&lt;b&gt;Back-End&lt;span style=&quot;white-space: pre;&quot;&gt;&#x9;&lt;/span&gt;&lt;span style=&quot;white-space: pre;&quot;&gt;&#x9;&lt;/span&gt;&lt;span style=&quot;white-space: pre;&quot;&gt;&#x9;&lt;/span&gt;&lt;/b&gt;&lt;/font&gt;&lt;/div&gt;" style="rounded=1;whiteSpace=wrap;html=1;fillColor=#E5CCFF;strokeColor=#6600CC;strokeWidth=2;labelBackgroundColor=none;fontStyle=0;fontSize=18;fontFamily=JetBrains Mono;fontSource=https%3A%2F%2Ffonts.googleapis.com%2Fcss%3Ffamily%3DJetBrains%2BMono;align=right;verticalAlign=top;" vertex="1" parent="1">
          <mxGeometry x="300" y="660" width="1190" height="520" as="geometry" />
        </mxCell>
        <mxCell id="YdkBwuoA39NBtErjTNVp-2" value="&lt;font color=&quot;#000000&quot;&gt;Data Processing&lt;/font&gt;&amp;nbsp; " style="rounded=1;whiteSpace=wrap;html=1;fillColor=default;strokeColor=#EA6B66;strokeWidth=2;fontColor=#7AA116;labelBackgroundColor=none;fontStyle=0;fontSize=18;gradientColor=none;gradientDirection=radial;fontFamily=JetBrains Mono;fontSource=https%3A%2F%2Ffonts.googleapis.com%2Fcss%3Ffamily%3DJetBrains%2BMono;" vertex="1" parent="1">
          <mxGeometry x="1110" y="795" width="260" height="79" as="geometry" />
        </mxCell>
        <mxCell id="YdkBwuoA39NBtErjTNVp-3" value="&lt;div&gt;&lt;font color=&quot;#000000&quot;&gt;Dashboard&lt;/font&gt;&lt;/div&gt;&lt;div&gt;&lt;font color=&quot;#000000&quot;&gt;Controller&lt;/font&gt;&lt;/div&gt;" style="rounded=1;whiteSpace=wrap;html=1;fillColor=default;strokeColor=#007FFF;strokeWidth=2;fontColor=#7AA116;labelBackgroundColor=none;fontStyle=0;fontSize=18;fontFamily=JetBrains Mono;fontSource=https%3A%2F%2Ffonts.googleapis.com%2Fcss%3Ffamily%3DJetBrains%2BMono;" vertex="1" parent="1">
          <mxGeometry x="720" y="710" width="280" height="100" as="geometry" />
        </mxCell>
        <mxCell id="YdkBwuoA39NBtErjTNVp-4" value="&lt;div&gt;&lt;font color=&quot;#000000&quot;&gt;Entity&lt;br&gt;&lt;/font&gt;&lt;/div&gt;&lt;div&gt;&lt;font color=&quot;#000000&quot;&gt;Information&lt;/font&gt;&lt;/div&gt;&lt;div&gt;&lt;font color=&quot;#000000&quot;&gt;Service&lt;br&gt;&lt;/font&gt;&lt;/div&gt;" style="rounded=1;whiteSpace=wrap;html=1;fillColor=default;strokeColor=#7aa116;strokeWidth=2;fontColor=#7AA116;labelBackgroundColor=none;fontStyle=0;fontSize=18;fontFamily=JetBrains Mono;fontSource=https%3A%2F%2Ffonts.googleapis.com%2Fcss%3Ffamily%3DJetBrains%2BMono;" vertex="1" parent="1">
          <mxGeometry x="320" y="700" width="213" height="120" as="geometry" />
        </mxCell>
        <mxCell id="YdkBwuoA39NBtErjTNVp-6" value="&lt;div&gt;&lt;font color=&quot;#000000&quot;&gt;Data Sources&lt;/font&gt;&lt;/div&gt;&lt;div&gt;&lt;font color=&quot;#000000&quot;&gt;Controller&lt;/font&gt;&lt;/div&gt;" style="rounded=1;whiteSpace=wrap;html=1;fillColor=default;strokeColor=#007FFF;strokeWidth=2;fontColor=#7AA116;labelBackgroundColor=none;fontStyle=0;fontSize=18;fontFamily=JetBrains Mono;fontSource=https%3A%2F%2Ffonts.googleapis.com%2Fcss%3Ffamily%3DJetBrains%2BMono;" vertex="1" parent="1">
          <mxGeometry x="710" y="1050" width="300" height="100" as="geometry" />
        </mxCell>
        <mxCell id="YdkBwuoA39NBtErjTNVp-8" value="&lt;div&gt;&lt;font color=&quot;#000000&quot;&gt;Saved Data&lt;/font&gt;&lt;/div&gt;&lt;div&gt;&lt;font color=&quot;#000000&quot;&gt;Layer Service&lt;br&gt;&lt;/font&gt;&lt;/div&gt;" style="rounded=1;whiteSpace=wrap;html=1;fillColor=default;strokeColor=#7aa116;strokeWidth=2;fontColor=#7AA116;labelBackgroundColor=none;fontStyle=0;fontSize=18;fontFamily=JetBrains Mono;fontSource=https%3A%2F%2Ffonts.googleapis.com%2Fcss%3Ffamily%3DJetBrains%2BMono;" vertex="1" parent="1">
          <mxGeometry x="320" y="980" width="213" height="120" as="geometry" />
        </mxCell>
        <mxCell id="YdkBwuoA39NBtErjTNVp-9" value="&lt;div&gt;&lt;font color=&quot;#000000&quot;&gt;Time and&amp;nbsp;&lt;/font&gt;&lt;/div&gt;&lt;div&gt;&lt;font color=&quot;#000000&quot;&gt;Information&lt;/font&gt;&lt;/div&gt;&lt;div&gt;&lt;font color=&quot;#000000&quot;&gt;Alerts&lt;/font&gt;&lt;/div&gt;" style="rounded=1;whiteSpace=wrap;html=1;fillColor=default;strokeColor=#EA6B66;strokeWidth=2;fontColor=#7AA116;labelBackgroundColor=none;fontStyle=0;fontSize=18;gradientColor=none;gradientDirection=radial;fontFamily=JetBrains Mono;fontSource=https%3A%2F%2Ffonts.googleapis.com%2Fcss%3Ffamily%3DJetBrains%2BMono;" vertex="1" parent="1">
          <mxGeometry x="711" y="901" width="290" height="95" as="geometry" />
        </mxCell>
        <mxCell id="YdkBwuoA39NBtErjTNVp-10" value="&lt;div&gt;&lt;font color=&quot;#000000&quot;&gt;Saved&lt;br&gt;&lt;/font&gt;&lt;/div&gt;&lt;div&gt;&lt;font color=&quot;#000000&quot;&gt;Actions-Reactions&lt;/font&gt;&lt;/div&gt;&lt;div&gt;&lt;font color=&quot;#000000&quot;&gt;Service&lt;br&gt;&lt;/font&gt;&lt;/div&gt;" style="rounded=1;whiteSpace=wrap;html=1;fillColor=default;strokeColor=#7aa116;strokeWidth=2;fontColor=#7AA116;labelBackgroundColor=none;fontStyle=0;fontSize=18;fontFamily=JetBrains Mono;fontSource=https%3A%2F%2Ffonts.googleapis.com%2Fcss%3Ffamily%3DJetBrains%2BMono;" vertex="1" parent="1">
          <mxGeometry x="320" y="840" width="213" height="120" as="geometry" />
        </mxCell>
        <mxCell id="YdkBwuoA39NBtErjTNVp-11" value="" style="shape=flexArrow;endArrow=classic;startArrow=none;html=1;rounded=0;fillColor=#FF8000;strokeColor=#B85450;endSize=6;width=6;exitX=0;exitY=0.5;exitDx=0;exitDy=0;startFill=0;entryX=1;entryY=0;entryDx=0;entryDy=0;" edge="1" parent="1" source="YdkBwuoA39NBtErjTNVp-25" target="YdkBwuoA39NBtErjTNVp-23">
          <mxGeometry width="100" height="100" relative="1" as="geometry">
            <mxPoint x="580" y="640" as="sourcePoint" />
            <mxPoint x="560" y="740" as="targetPoint" />
          </mxGeometry>
        </mxCell>
        <mxCell id="YdkBwuoA39NBtErjTNVp-12" value="" style="shape=flexArrow;endArrow=classic;startArrow=none;html=1;rounded=0;fillColor=#FF8000;strokeColor=#B85450;entryX=1;entryY=0.5;entryDx=0;entryDy=0;exitX=0;exitY=0.5;exitDx=0;exitDy=0;startFill=0;width=6;" edge="1" parent="1" source="YdkBwuoA39NBtErjTNVp-16" target="YdkBwuoA39NBtErjTNVp-17">
          <mxGeometry width="100" height="100" relative="1" as="geometry">
            <mxPoint x="860" y="1039.41" as="sourcePoint" />
            <mxPoint x="533" y="1039.41" as="targetPoint" />
          </mxGeometry>
        </mxCell>
        <mxCell id="YdkBwuoA39NBtErjTNVp-13" value="" style="shape=flexArrow;endArrow=classic;startArrow=block;html=1;rounded=0;fillColor=#FF8000;strokeColor=#B85450;entryX=1;entryY=0.5;entryDx=0;entryDy=0;startFill=0;width=6;exitX=0;exitY=1;exitDx=0;exitDy=0;" edge="1" parent="1" source="YdkBwuoA39NBtErjTNVp-28" target="YdkBwuoA39NBtErjTNVp-21">
          <mxGeometry width="100" height="100" relative="1" as="geometry">
            <mxPoint x="680" y="850" as="sourcePoint" />
            <mxPoint x="543" y="1049.41" as="targetPoint" />
          </mxGeometry>
        </mxCell>
        <mxCell id="YdkBwuoA39NBtErjTNVp-14" value="" style="shape=flexArrow;endArrow=classic;startArrow=none;html=1;rounded=0;fillColor=#FF8000;strokeColor=#B85450;entryX=0;entryY=0.5;entryDx=0;entryDy=0;exitX=1;exitY=0.5;exitDx=0;exitDy=0;startFill=0;width=6;" edge="1" parent="1" source="YdkBwuoA39NBtErjTNVp-22" target="YdkBwuoA39NBtErjTNVp-29">
          <mxGeometry width="100" height="100" relative="1" as="geometry">
            <mxPoint x="870" y="820" as="sourcePoint" />
            <mxPoint x="543" y="850" as="targetPoint" />
          </mxGeometry>
        </mxCell>
        <mxCell id="YdkBwuoA39NBtErjTNVp-16" value="&lt;font color=&quot;#000000&quot;&gt;Output&lt;/font&gt;" style="rounded=1;whiteSpace=wrap;html=1;fillColor=default;strokeColor=#007FFF;strokeWidth=2;fontColor=#7AA116;labelBackgroundColor=none;fontStyle=0;fontSize=18;fontFamily=JetBrains Mono;fontSource=https%3A%2F%2Ffonts.googleapis.com%2Fcss%3Ffamily%3DJetBrains%2BMono;arcSize=0;" vertex="1" parent="1">
          <mxGeometry x="680" y="1085" width="70" height="30" as="geometry" />
        </mxCell>
        <mxCell id="YdkBwuoA39NBtErjTNVp-17" value="&lt;font color=&quot;#000000&quot;&gt;Input&lt;/font&gt;" style="rounded=1;whiteSpace=wrap;html=1;fillColor=default;strokeColor=#7AA116;strokeWidth=2;fontColor=#7AA116;labelBackgroundColor=none;fontStyle=0;fontSize=18;fontFamily=JetBrains Mono;fontSource=https%3A%2F%2Ffonts.googleapis.com%2Fcss%3Ffamily%3DJetBrains%2BMono;arcSize=0;" vertex="1" parent="1">
          <mxGeometry x="508" y="1050" width="60" height="30" as="geometry" />
        </mxCell>
        <mxCell id="YdkBwuoA39NBtErjTNVp-20" value="&lt;font color=&quot;#000000&quot;&gt;Data&lt;/font&gt;" style="rounded=1;whiteSpace=wrap;html=1;fillColor=default;strokeColor=#7AA116;strokeWidth=2;fontColor=#7AA116;labelBackgroundColor=none;fontStyle=0;fontSize=18;fontFamily=JetBrains Mono;fontSource=https%3A%2F%2Ffonts.googleapis.com%2Fcss%3Ffamily%3DJetBrains%2BMono;arcSize=0;" vertex="1" parent="1">
          <mxGeometry x="508" y="1000" width="60" height="30" as="geometry" />
        </mxCell>
        <mxCell id="YdkBwuoA39NBtErjTNVp-21" value="&lt;font color=&quot;#000000&quot;&gt;Input&lt;/font&gt;" style="rounded=1;whiteSpace=wrap;html=1;fillColor=default;strokeColor=#7AA116;strokeWidth=2;fontColor=#7AA116;labelBackgroundColor=none;fontStyle=0;fontSize=18;fontFamily=JetBrains Mono;fontSource=https%3A%2F%2Ffonts.googleapis.com%2Fcss%3Ffamily%3DJetBrains%2BMono;arcSize=0;" vertex="1" parent="1">
          <mxGeometry x="500" y="860.5" width="60" height="30" as="geometry" />
        </mxCell>
        <mxCell id="YdkBwuoA39NBtErjTNVp-22" value="&lt;font color=&quot;#000000&quot;&gt;Data&lt;/font&gt;" style="rounded=1;whiteSpace=wrap;html=1;fillColor=default;strokeColor=#7AA116;strokeWidth=2;fontColor=#7AA116;labelBackgroundColor=none;fontStyle=0;fontSize=18;fontFamily=JetBrains Mono;fontSource=https%3A%2F%2Ffonts.googleapis.com%2Fcss%3Ffamily%3DJetBrains%2BMono;arcSize=0;" vertex="1" parent="1">
          <mxGeometry x="500" y="909.5" width="60" height="30" as="geometry" />
        </mxCell>
        <mxCell id="YdkBwuoA39NBtErjTNVp-23" value="&lt;font color=&quot;#000000&quot;&gt;Data&lt;/font&gt;" style="rounded=1;whiteSpace=wrap;html=1;fillColor=default;strokeColor=#7AA116;strokeWidth=2;fontColor=#7AA116;labelBackgroundColor=none;fontStyle=0;fontSize=18;fontFamily=JetBrains Mono;fontSource=https%3A%2F%2Ffonts.googleapis.com%2Fcss%3Ffamily%3DJetBrains%2BMono;arcSize=0;" vertex="1" parent="1">
          <mxGeometry x="500" y="745" width="60" height="30" as="geometry" />
        </mxCell>
        <mxCell id="YdkBwuoA39NBtErjTNVp-25" value="&lt;font color=&quot;#000000&quot;&gt;New data&lt;br&gt;&lt;/font&gt;" style="rounded=1;whiteSpace=wrap;html=1;fillColor=default;strokeColor=#007FFF;strokeWidth=2;fontColor=#7AA116;labelBackgroundColor=none;fontStyle=0;fontSize=18;fontFamily=JetBrains Mono;fontSource=https%3A%2F%2Ffonts.googleapis.com%2Fcss%3Ffamily%3DJetBrains%2BMono;arcSize=0;" vertex="1" parent="1">
          <mxGeometry x="690" y="710" width="80" height="40" as="geometry" />
        </mxCell>
        <mxCell id="YdkBwuoA39NBtErjTNVp-26" value="&lt;div&gt;&lt;font color=&quot;#000000&quot;&gt;Generic&lt;/font&gt;&lt;/div&gt;&lt;div&gt;&lt;font color=&quot;#000000&quot;&gt;data&lt;/font&gt;&lt;/div&gt;" style="rounded=1;whiteSpace=wrap;html=1;fillColor=default;strokeColor=#007FFF;strokeWidth=2;fontColor=#7AA116;labelBackgroundColor=none;fontStyle=0;fontSize=18;fontFamily=JetBrains Mono;fontSource=https%3A%2F%2Ffonts.googleapis.com%2Fcss%3Ffamily%3DJetBrains%2BMono;arcSize=0;" vertex="1" parent="1">
          <mxGeometry x="690" y="770" width="80" height="40" as="geometry" />
        </mxCell>
        <mxCell id="YdkBwuoA39NBtErjTNVp-27" value="" style="shape=flexArrow;endArrow=classic;startArrow=none;html=1;rounded=0;fillColor=#FF8000;strokeColor=#B85450;endSize=6;width=6;entryX=0;entryY=0.5;entryDx=0;entryDy=0;exitX=1;exitY=1;exitDx=0;exitDy=0;startFill=0;" edge="1" parent="1" source="YdkBwuoA39NBtErjTNVp-23" target="YdkBwuoA39NBtErjTNVp-26">
          <mxGeometry width="100" height="100" relative="1" as="geometry">
            <mxPoint x="570" y="770" as="sourcePoint" />
            <mxPoint x="630" y="740" as="targetPoint" />
          </mxGeometry>
        </mxCell>
        <mxCell id="YdkBwuoA39NBtErjTNVp-28" value="&lt;font color=&quot;#000000&quot;&gt;Relationships&lt;/font&gt;" style="rounded=1;whiteSpace=wrap;html=1;fillColor=default;strokeColor=#007FFF;strokeWidth=2;fontColor=#7AA116;labelBackgroundColor=none;fontStyle=0;fontSize=18;fontFamily=JetBrains Mono;fontSource=https%3A%2F%2Ffonts.googleapis.com%2Fcss%3Ffamily%3DJetBrains%2BMono;arcSize=0;" vertex="1" parent="1">
          <mxGeometry x="780" y="790" width="150" height="40" as="geometry" />
        </mxCell>
        <mxCell id="YdkBwuoA39NBtErjTNVp-29" value="&lt;font color=&quot;#000000&quot;&gt;Relationships&lt;/font&gt;" style="rounded=1;whiteSpace=wrap;html=1;fillColor=default;strokeColor=#FF0000;strokeWidth=2;fontColor=#7AA116;labelBackgroundColor=none;fontStyle=0;fontSize=18;fontFamily=JetBrains Mono;fontSource=https%3A%2F%2Ffonts.googleapis.com%2Fcss%3Ffamily%3DJetBrains%2BMono;arcSize=0;" vertex="1" parent="1">
          <mxGeometry x="626" y="906.5" width="145" height="34.5" as="geometry" />
        </mxCell>
        <mxCell id="YdkBwuoA39NBtErjTNVp-31" value="&lt;font color=&quot;#000000&quot;&gt;Sensor Data&lt;br&gt;&lt;/font&gt;" style="rounded=1;whiteSpace=wrap;html=1;fillColor=default;strokeColor=#FF0000;strokeWidth=2;fontColor=#7AA116;labelBackgroundColor=none;fontStyle=0;fontSize=18;fontFamily=JetBrains Mono;fontSource=https%3A%2F%2Ffonts.googleapis.com%2Fcss%3Ffamily%3DJetBrains%2BMono;arcSize=0;" vertex="1" parent="1">
          <mxGeometry x="626" y="955" width="145" height="35.5" as="geometry" />
        </mxCell>
        <mxCell id="YdkBwuoA39NBtErjTNVp-32" value="" style="shape=flexArrow;endArrow=classic;startArrow=none;html=1;rounded=0;fillColor=#FF8000;strokeColor=#B85450;entryX=0;entryY=0.5;entryDx=0;entryDy=0;exitX=1;exitY=0.5;exitDx=0;exitDy=0;startFill=0;width=6;" edge="1" parent="1" target="YdkBwuoA39NBtErjTNVp-31">
          <mxGeometry width="100" height="100" relative="1" as="geometry">
            <mxPoint x="568" y="1014" as="sourcePoint" />
            <mxPoint x="633" y="1000" as="targetPoint" />
          </mxGeometry>
        </mxCell>
        <mxCell id="YdkBwuoA39NBtErjTNVp-33" value="&lt;font color=&quot;#000000&quot;&gt;Alerts&lt;/font&gt;" style="rounded=1;whiteSpace=wrap;html=1;fillColor=default;strokeColor=#007FFF;strokeWidth=2;fontColor=#7AA116;labelBackgroundColor=none;fontStyle=0;fontSize=18;fontFamily=JetBrains Mono;fontSource=https%3A%2F%2Ffonts.googleapis.com%2Fcss%3Ffamily%3DJetBrains%2BMono;arcSize=0;" vertex="1" parent="1">
          <mxGeometry x="950" y="740" width="80" height="40" as="geometry" />
        </mxCell>
        <mxCell id="YdkBwuoA39NBtErjTNVp-34" value="&lt;font color=&quot;#000000&quot;&gt;Actions&lt;/font&gt;" style="rounded=1;whiteSpace=wrap;html=1;fillColor=default;strokeColor=#FF0000;strokeWidth=2;fontColor=#7AA116;labelBackgroundColor=none;fontStyle=0;fontSize=18;fontFamily=JetBrains Mono;fontSource=https%3A%2F%2Ffonts.googleapis.com%2Fcss%3Ffamily%3DJetBrains%2BMono;arcSize=0;" vertex="1" parent="1">
          <mxGeometry x="1080" y="855" width="145" height="40" as="geometry" />
        </mxCell>
        <mxCell id="YdkBwuoA39NBtErjTNVp-35" value="&lt;font color=&quot;#000000&quot;&gt;Reactions&lt;/font&gt;" style="rounded=1;whiteSpace=wrap;html=1;fillColor=default;strokeColor=#FF0000;strokeWidth=2;fontColor=#7AA116;labelBackgroundColor=none;fontStyle=0;fontSize=18;fontFamily=JetBrains Mono;fontSource=https%3A%2F%2Ffonts.googleapis.com%2Fcss%3Ffamily%3DJetBrains%2BMono;arcSize=0;" vertex="1" parent="1">
          <mxGeometry x="1323.25" y="815" width="145" height="40" as="geometry" />
        </mxCell>
        <mxCell id="YdkBwuoA39NBtErjTNVp-36" value="&lt;font color=&quot;#000000&quot;&gt;Actions&lt;/font&gt;" style="rounded=1;whiteSpace=wrap;html=1;fillColor=default;strokeColor=#FF0000;strokeWidth=2;fontColor=#7AA116;labelBackgroundColor=none;fontStyle=0;fontSize=18;fontFamily=JetBrains Mono;fontSource=https%3A%2F%2Ffonts.googleapis.com%2Fcss%3Ffamily%3DJetBrains%2BMono;arcSize=0;" vertex="1" parent="1">
          <mxGeometry x="946" y="928.5" width="100" height="40" as="geometry" />
        </mxCell>
        <mxCell id="YdkBwuoA39NBtErjTNVp-37" value="" style="shape=flexArrow;endArrow=classic;startArrow=none;html=1;rounded=0;fillColor=#FF8000;strokeColor=#B85450;entryX=0;entryY=1;entryDx=0;entryDy=0;exitX=1;exitY=0;exitDx=0;exitDy=0;startFill=0;width=6;" edge="1" parent="1" source="YdkBwuoA39NBtErjTNVp-36" target="YdkBwuoA39NBtErjTNVp-34">
          <mxGeometry width="100" height="100" relative="1" as="geometry">
            <mxPoint x="1120" y="860.5" as="sourcePoint" />
            <mxPoint x="1230" y="861.5" as="targetPoint" />
          </mxGeometry>
        </mxCell>
        <mxCell id="YdkBwuoA39NBtErjTNVp-38" value="&lt;font color=&quot;#000000&quot;&gt;Alerts&lt;/font&gt;" style="rounded=1;whiteSpace=wrap;html=1;fillColor=default;strokeColor=#FF0000;strokeWidth=2;fontColor=#7AA116;labelBackgroundColor=none;fontStyle=0;fontSize=18;fontFamily=JetBrains Mono;fontSource=https%3A%2F%2Ffonts.googleapis.com%2Fcss%3Ffamily%3DJetBrains%2BMono;arcSize=0;" vertex="1" parent="1">
          <mxGeometry x="1080" y="780" width="145" height="40" as="geometry" />
        </mxCell>
        <mxCell id="YdkBwuoA39NBtErjTNVp-39" value="" style="shape=flexArrow;endArrow=classic;startArrow=none;html=1;rounded=0;fillColor=#FF8000;strokeColor=#B85450;entryX=1;entryY=0.5;entryDx=0;entryDy=0;exitX=0;exitY=0.5;exitDx=0;exitDy=0;startFill=0;width=6;" edge="1" parent="1" source="YdkBwuoA39NBtErjTNVp-38" target="YdkBwuoA39NBtErjTNVp-33">
          <mxGeometry width="100" height="100" relative="1" as="geometry">
            <mxPoint x="1099" y="938" as="sourcePoint" />
            <mxPoint x="1116" y="900" as="targetPoint" />
          </mxGeometry>
        </mxCell>
        <mxCell id="YdkBwuoA39NBtErjTNVp-51" value="Data Sources&amp;nbsp;&amp;nbsp; " style="rounded=1;whiteSpace=wrap;html=1;fillColor=#8DEBDA;strokeColor=#375C55;strokeWidth=2;labelBackgroundColor=none;fontStyle=0;fontSize=18;fontFamily=JetBrains Mono;fontSource=https%3A%2F%2Ffonts.googleapis.com%2Fcss%3Ffamily%3DJetBrains%2BMono;align=right;verticalAlign=top;fontColor=#375C55;" vertex="1" parent="1">
          <mxGeometry x="1040" y="1220" width="270" height="270" as="geometry" />
        </mxCell>
        <mxCell id="YdkBwuoA39NBtErjTNVp-52" value="&lt;font color=&quot;#000000&quot;&gt;Information&lt;br&gt;Processor&lt;br&gt;&lt;/font&gt;" style="rounded=1;whiteSpace=wrap;html=1;fillColor=default;strokeColor=#007FFF;strokeWidth=2;fontColor=#7AA116;labelBackgroundColor=none;fontStyle=0;fontSize=18;fontFamily=JetBrains Mono;fontSource=https%3A%2F%2Ffonts.googleapis.com%2Fcss%3Ffamily%3DJetBrains%2BMono;" vertex="1" parent="1">
          <mxGeometry x="1090" y="1250" width="191" height="100" as="geometry" />
        </mxCell>
        <mxCell id="YdkBwuoA39NBtErjTNVp-53" value="&lt;font color=&quot;#000000&quot;&gt;Data Sensor&lt;br&gt;&lt;/font&gt;" style="rounded=1;whiteSpace=wrap;html=1;fillColor=default;strokeColor=#FF0000;strokeWidth=2;fontColor=#7AA116;labelBackgroundColor=none;fontStyle=0;fontSize=18;fontFamily=JetBrains Mono;fontSource=https%3A%2F%2Ffonts.googleapis.com%2Fcss%3Ffamily%3DJetBrains%2BMono;" vertex="1" parent="1">
          <mxGeometry x="1109.5" y="1430" width="152" height="40" as="geometry" />
        </mxCell>
        <mxCell id="YdkBwuoA39NBtErjTNVp-54" value="&lt;font color=&quot;#000000&quot;&gt;Output&lt;/font&gt;" style="rounded=1;whiteSpace=wrap;html=1;fillColor=default;strokeColor=#FF0000;strokeWidth=2;fontColor=#7AA116;labelBackgroundColor=none;fontStyle=0;fontSize=18;fontFamily=JetBrains Mono;fontSource=https%3A%2F%2Ffonts.googleapis.com%2Fcss%3Ffamily%3DJetBrains%2BMono;arcSize=0;" vertex="1" parent="1">
          <mxGeometry x="1150.5" y="1410" width="70" height="30" as="geometry" />
        </mxCell>
        <mxCell id="YdkBwuoA39NBtErjTNVp-55" value="" style="shape=flexArrow;endArrow=classic;startArrow=none;html=1;rounded=0;fillColor=#FF8000;strokeColor=#B85450;exitX=0.5;exitY=0;exitDx=0;exitDy=0;startFill=0;width=6;entryX=0.5;entryY=1;entryDx=0;entryDy=0;" edge="1" parent="1" source="YdkBwuoA39NBtErjTNVp-54" target="YdkBwuoA39NBtErjTNVp-56">
          <mxGeometry width="100" height="100" relative="1" as="geometry">
            <mxPoint x="1376" y="909" as="sourcePoint" />
            <mxPoint x="1500" y="1380" as="targetPoint" />
          </mxGeometry>
        </mxCell>
        <mxCell id="YdkBwuoA39NBtErjTNVp-56" value="&lt;font color=&quot;#000000&quot;&gt;Input&lt;/font&gt;" style="rounded=1;whiteSpace=wrap;html=1;fillColor=default;strokeColor=#007FFF;strokeWidth=2;fontColor=#7AA116;labelBackgroundColor=none;fontStyle=0;fontSize=18;fontFamily=JetBrains Mono;fontSource=https%3A%2F%2Ffonts.googleapis.com%2Fcss%3Ffamily%3DJetBrains%2BMono;arcSize=0;" vertex="1" parent="1">
          <mxGeometry x="1153" y="1340" width="65" height="30" as="geometry" />
        </mxCell>
        <mxCell id="YdkBwuoA39NBtErjTNVp-57" value="&lt;font color=&quot;#000000&quot;&gt;Message&lt;/font&gt;" style="rounded=1;whiteSpace=wrap;html=1;fillColor=default;strokeColor=#007FFF;strokeWidth=2;fontColor=#7AA116;labelBackgroundColor=none;fontStyle=0;fontSize=18;fontFamily=JetBrains Mono;fontSource=https%3A%2F%2Ffonts.googleapis.com%2Fcss%3Ffamily%3DJetBrains%2BMono;arcSize=0;" vertex="1" parent="1">
          <mxGeometry x="1050" y="1325" width="90" height="30" as="geometry" />
        </mxCell>
        <mxCell id="YdkBwuoA39NBtErjTNVp-58" value="Message Queue&amp;nbsp;&amp;nbsp; " style="rounded=1;whiteSpace=wrap;html=1;fillColor=#b0e3e6;strokeColor=#0e8088;strokeWidth=2;labelBackgroundColor=none;fontStyle=0;fontSize=18;fontFamily=JetBrains Mono;fontSource=https%3A%2F%2Ffonts.googleapis.com%2Fcss%3Ffamily%3DJetBrains%2BMono;align=right;verticalAlign=top;fontColor=#0E8088;" vertex="1" parent="1">
          <mxGeometry x="680" y="1220" width="282" height="190" as="geometry" />
        </mxCell>
        <mxCell id="YdkBwuoA39NBtErjTNVp-59" value="&lt;font color=&quot;#000000&quot;&gt;Queue&lt;/font&gt;" style="rounded=1;whiteSpace=wrap;html=1;fillColor=default;strokeColor=#007FFF;strokeWidth=2;fontColor=#7AA116;labelBackgroundColor=none;fontStyle=0;fontSize=18;fontFamily=JetBrains Mono;fontSource=https%3A%2F%2Ffonts.googleapis.com%2Fcss%3Ffamily%3DJetBrains%2BMono;" vertex="1" parent="1">
          <mxGeometry x="700" y="1290" width="191" height="100" as="geometry" />
        </mxCell>
        <mxCell id="YdkBwuoA39NBtErjTNVp-60" value="&lt;font color=&quot;#000000&quot;&gt;Messages&lt;/font&gt;" style="rounded=1;whiteSpace=wrap;html=1;fillColor=default;strokeColor=#007FFF;strokeWidth=2;fontColor=#7AA116;labelBackgroundColor=none;fontStyle=0;fontSize=18;fontFamily=JetBrains Mono;fontSource=https%3A%2F%2Ffonts.googleapis.com%2Fcss%3Ffamily%3DJetBrains%2BMono;arcSize=0;" vertex="1" parent="1">
          <mxGeometry x="860" y="1325" width="100" height="30" as="geometry" />
        </mxCell>
        <mxCell id="YdkBwuoA39NBtErjTNVp-61" value="&lt;font color=&quot;#000000&quot;&gt;Messages&lt;/font&gt;" style="rounded=1;whiteSpace=wrap;html=1;fillColor=default;strokeColor=#007FFF;strokeWidth=2;fontColor=#7AA116;labelBackgroundColor=none;fontStyle=0;fontSize=18;fontFamily=JetBrains Mono;fontSource=https%3A%2F%2Ffonts.googleapis.com%2Fcss%3Ffamily%3DJetBrains%2BMono;arcSize=0;" vertex="1" parent="1">
          <mxGeometry x="700" y="1280" width="100" height="30" as="geometry" />
        </mxCell>
        <mxCell id="YdkBwuoA39NBtErjTNVp-63" value="&lt;font color=&quot;#000000&quot;&gt;Data&lt;/font&gt;" style="rounded=1;whiteSpace=wrap;html=1;fillColor=default;strokeColor=#007FFF;strokeWidth=2;fontColor=#7AA116;labelBackgroundColor=none;fontStyle=0;fontSize=18;fontFamily=JetBrains Mono;fontSource=https%3A%2F%2Ffonts.googleapis.com%2Fcss%3Ffamily%3DJetBrains%2BMono;arcSize=0;" vertex="1" parent="1">
          <mxGeometry x="720" y="1140" width="60" height="30" as="geometry" />
        </mxCell>
        <mxCell id="YdkBwuoA39NBtErjTNVp-64" value="" style="shape=flexArrow;endArrow=classic;startArrow=none;html=1;rounded=0;fillColor=#FF8000;strokeColor=#B85450;exitX=0;exitY=0.5;exitDx=0;exitDy=0;startFill=0;width=6;entryX=1;entryY=0.5;entryDx=0;entryDy=0;" edge="1" parent="1" source="YdkBwuoA39NBtErjTNVp-57" target="YdkBwuoA39NBtErjTNVp-60">
          <mxGeometry width="100" height="100" relative="1" as="geometry">
            <mxPoint x="1196" y="1420" as="sourcePoint" />
            <mxPoint x="1196" y="1380" as="targetPoint" />
          </mxGeometry>
        </mxCell>
        <mxCell id="YdkBwuoA39NBtErjTNVp-65" value="" style="shape=flexArrow;endArrow=classic;startArrow=none;html=1;rounded=0;fillColor=#FF8000;strokeColor=#B85450;exitX=0.5;exitY=0;exitDx=0;exitDy=0;startFill=0;width=6;entryX=0.5;entryY=1;entryDx=0;entryDy=0;" edge="1" parent="1" source="YdkBwuoA39NBtErjTNVp-61" target="YdkBwuoA39NBtErjTNVp-63">
          <mxGeometry width="100" height="100" relative="1" as="geometry">
            <mxPoint x="1070" y="1470" as="sourcePoint" />
            <mxPoint x="940" y="1555" as="targetPoint" />
          </mxGeometry>
        </mxCell>
        <mxCell id="YdkBwuoA39NBtErjTNVp-67" value="Output Devices&amp;nbsp;&amp;nbsp; &lt;br&gt;&amp;nbsp;&amp;nbsp; " style="rounded=1;whiteSpace=wrap;html=1;fillColor=#f8cecc;strokeColor=#b85450;strokeWidth=2;labelBackgroundColor=none;fontStyle=0;fontSize=18;fontFamily=JetBrains Mono;fontSource=https%3A%2F%2Ffonts.googleapis.com%2Fcss%3Ffamily%3DJetBrains%2BMono;align=right;verticalAlign=top;" vertex="1" parent="1">
          <mxGeometry x="1535" y="715" width="270" height="270" as="geometry" />
        </mxCell>
        <mxCell id="YdkBwuoA39NBtErjTNVp-68" value="&lt;font color=&quot;#000000&quot;&gt;Information&lt;br&gt;Processor&lt;br&gt;&lt;/font&gt;" style="rounded=1;whiteSpace=wrap;html=1;fillColor=default;strokeColor=#007FFF;strokeWidth=2;fontColor=#7AA116;labelBackgroundColor=none;fontStyle=0;fontSize=18;fontFamily=JetBrains Mono;fontSource=https%3A%2F%2Ffonts.googleapis.com%2Fcss%3Ffamily%3DJetBrains%2BMono;" vertex="1" parent="1">
          <mxGeometry x="1585" y="745" width="191" height="100" as="geometry" />
        </mxCell>
        <mxCell id="YdkBwuoA39NBtErjTNVp-69" value="&lt;font color=&quot;#000000&quot;&gt;Actuator&lt;/font&gt;" style="rounded=1;whiteSpace=wrap;html=1;fillColor=default;strokeColor=#FF0000;strokeWidth=2;fontColor=#7AA116;labelBackgroundColor=none;fontStyle=0;fontSize=18;fontFamily=JetBrains Mono;fontSource=https%3A%2F%2Ffonts.googleapis.com%2Fcss%3Ffamily%3DJetBrains%2BMono;" vertex="1" parent="1">
          <mxGeometry x="1604.5" y="925" width="152" height="40" as="geometry" />
        </mxCell>
        <mxCell id="YdkBwuoA39NBtErjTNVp-70" value="&lt;font color=&quot;#000000&quot;&gt;Input&lt;/font&gt;" style="rounded=1;whiteSpace=wrap;html=1;fillColor=default;strokeColor=#FF0000;strokeWidth=2;fontColor=#7AA116;labelBackgroundColor=none;fontStyle=0;fontSize=18;fontFamily=JetBrains Mono;fontSource=https%3A%2F%2Ffonts.googleapis.com%2Fcss%3Ffamily%3DJetBrains%2BMono;arcSize=0;" vertex="1" parent="1">
          <mxGeometry x="1651.5" y="904" width="70" height="30" as="geometry" />
        </mxCell>
        <mxCell id="YdkBwuoA39NBtErjTNVp-71" value="" style="shape=flexArrow;endArrow=classic;startArrow=none;html=1;rounded=0;fillColor=#FF8000;strokeColor=#B85450;exitX=0.5;exitY=1;exitDx=0;exitDy=0;startFill=0;width=6;entryX=0.5;entryY=0;entryDx=0;entryDy=0;" edge="1" parent="1" source="YdkBwuoA39NBtErjTNVp-72" target="YdkBwuoA39NBtErjTNVp-70">
          <mxGeometry width="100" height="100" relative="1" as="geometry">
            <mxPoint x="1995" y="875" as="sourcePoint" />
            <mxPoint x="1871" y="404" as="targetPoint" />
          </mxGeometry>
        </mxCell>
        <mxCell id="YdkBwuoA39NBtErjTNVp-72" value="&lt;font color=&quot;#000000&quot;&gt;Action&lt;/font&gt;" style="rounded=1;whiteSpace=wrap;html=1;fillColor=default;strokeColor=#007FFF;strokeWidth=2;fontColor=#7AA116;labelBackgroundColor=none;fontStyle=0;fontSize=18;fontFamily=JetBrains Mono;fontSource=https%3A%2F%2Ffonts.googleapis.com%2Fcss%3Ffamily%3DJetBrains%2BMono;arcSize=0;" vertex="1" parent="1">
          <mxGeometry x="1648" y="835" width="77" height="30" as="geometry" />
        </mxCell>
        <mxCell id="YdkBwuoA39NBtErjTNVp-73" value="&lt;font color=&quot;#000000&quot;&gt;Input&lt;/font&gt;" style="rounded=1;whiteSpace=wrap;html=1;fillColor=default;strokeColor=#007FFF;strokeWidth=2;fontColor=#7AA116;labelBackgroundColor=none;fontStyle=0;fontSize=18;fontFamily=JetBrains Mono;fontSource=https%3A%2F%2Ffonts.googleapis.com%2Fcss%3Ffamily%3DJetBrains%2BMono;arcSize=0;" vertex="1" parent="1">
          <mxGeometry x="1545" y="820" width="90" height="30" as="geometry" />
        </mxCell>
        <mxCell id="YdkBwuoA39NBtErjTNVp-74" value="" style="shape=flexArrow;endArrow=classic;startArrow=none;html=1;rounded=0;fillColor=#FF8000;strokeColor=#B85450;exitX=1;exitY=0.5;exitDx=0;exitDy=0;startFill=0;width=6;entryX=0;entryY=0.5;entryDx=0;entryDy=0;" edge="1" parent="1" source="YdkBwuoA39NBtErjTNVp-35" target="YdkBwuoA39NBtErjTNVp-73">
          <mxGeometry width="100" height="100" relative="1" as="geometry">
            <mxPoint x="1772" y="820" as="sourcePoint" />
            <mxPoint x="1772" y="859" as="targetPoint" />
          </mxGeometry>
        </mxCell>
        <mxCell id="YdkBwuoA39NBtErjTNVp-75" value="" style="sketch=0;outlineConnect=0;fontColor=#232F3E;gradientColor=none;fillColor=#CC6600;strokeColor=none;dashed=0;verticalLabelPosition=bottom;verticalAlign=top;align=center;html=1;fontSize=12;fontStyle=0;aspect=fixed;pointerEvents=1;shape=mxgraph.aws4.iot_analytics_data_store;fontFamily=JetBrains Mono;fontSource=https%3A%2F%2Ffonts.googleapis.com%2Fcss%3Ffamily%3DJetBrains%2BMono;" vertex="1" parent="1">
          <mxGeometry x="89" y="840" width="72" height="104" as="geometry" />
        </mxCell>
        <mxCell id="YdkBwuoA39NBtErjTNVp-77" value="" style="shape=flexArrow;endArrow=classic;startArrow=none;html=1;rounded=0;fillColor=#FF8000;strokeColor=#B85450;endSize=6;width=6;exitX=0;exitY=0.5;exitDx=0;exitDy=0;startFill=0;" edge="1" parent="1" source="YdkBwuoA39NBtErjTNVp-4">
          <mxGeometry width="100" height="100" relative="1" as="geometry">
            <mxPoint x="300" y="874" as="sourcePoint" />
            <mxPoint x="170" y="870" as="targetPoint" />
          </mxGeometry>
        </mxCell>
        <mxCell id="YdkBwuoA39NBtErjTNVp-78" value="" style="shape=flexArrow;endArrow=classic;startArrow=none;html=1;rounded=0;fillColor=#FF8000;strokeColor=#B85450;endSize=6;width=6;exitX=0;exitY=0.5;exitDx=0;exitDy=0;startFill=0;" edge="1" parent="1" source="YdkBwuoA39NBtErjTNVp-10">
          <mxGeometry width="100" height="100" relative="1" as="geometry">
            <mxPoint x="330" y="770" as="sourcePoint" />
            <mxPoint x="170" y="900" as="targetPoint" />
          </mxGeometry>
        </mxCell>
        <mxCell id="YdkBwuoA39NBtErjTNVp-79" value="" style="shape=flexArrow;endArrow=classic;startArrow=none;html=1;rounded=0;fillColor=#FF8000;strokeColor=#B85450;endSize=6;width=6;exitX=0;exitY=0.5;exitDx=0;exitDy=0;startFill=0;" edge="1" parent="1" source="YdkBwuoA39NBtErjTNVp-8">
          <mxGeometry width="100" height="100" relative="1" as="geometry">
            <mxPoint x="330" y="910" as="sourcePoint" />
            <mxPoint x="170" y="930" as="targetPoint" />
          </mxGeometry>
        </mxCell>
        <mxCell id="YdkBwuoA39NBtErjTNVp-80" value="" style="shape=image;verticalLabelPosition=bottom;labelBackgroundColor=default;verticalAlign=top;aspect=fixed;imageAspect=0;image=data:image/png,iVBORw0KGgoAAAANSUhEUgAAA0MAAAG1CAIAAAC09riVAAAA0GVYSWZJSSoACAAAAAoAAAEEAAEAAABDAwAAAQEEAAEAAAC1AQAAAgEDAAMAAACGAAAAEgEDAAEAAAABAAAAGgEFAAEAAACMAAAAGwEFAAEAAACUAAAAKAEDAAEAAAADAAAAMQECAA0AAACcAAAAMgECABQAAACqAAAAaYcEAAEAAAC+AAAAAAAAAAgACAAIAL0AAAAFAAAAvQAAAAUAAABHSU1QIDIuMTAuMzQAADIwMjM6MTE6MDMgMTI6NDg6NDcAAQABoAMAAQAAAAEAAAAAAAAArmFLLAAAAYRpQ0NQSUNDIHByb2ZpbGUAAHicfZE9SMNAHMVfU0XRioMdVBwyVCcLoiKOtQpFqBBqhVYdTC79giYNSYqLo+BacPBjserg4qyrg6sgCH6AuLo4KbpIif9LCi1iPDjux7t7j7t3gFAvM83qiAGabpupRFzMZFfFrlf0IogQJjAkM8uYk6QkfMfXPQJ8vYvyLP9zf44+NWcxICASx5hh2sQbxDObtsF5nzjMirJKfE48btIFiR+5rnj8xrngssAzw2Y6NU8cJhYLbay0MSuaGvE0cUTVdMoXMh6rnLc4a+Uqa96TvzCU01eWuU5zBAksYgkSRCioooQybERp1UmxkKL9uI9/2PVL5FLIVQIjxwIq0CC7fvA/+N2tlZ+a9JJCcaDzxXE+RoGuXaBRc5zvY8dpnADBZ+BKb/krdWD2k/RaS4scAf3bwMV1S1P2gMsdYPDJkE3ZlYI0hXweeD+jb8oCA7dAz5rXW3Mfpw9AmrpK3gAHh8BYgbLXfd7d3d7bv2ea/f0AknVys4K0rIkAAA14aVRYdFhNTDpjb20uYWRvYmUueG1wAAAAAAA8P3hwYWNrZXQgYmVnaW49Iu+7vyIgaWQ9Ilc1TTBNcENlaGlIenJlU3pOVGN6a2M5ZCI/Pgo8eDp4bXBtZXRhIHhtbG5zOng9ImFkb2JlOm5zOm1ldGEvIiB4OnhtcHRrPSJYTVAgQ29yZSA0LjQuMC1FeGl2MiI+CiA8cmRmOlJERiB4bWxuczpyZGY9Imh0dHA6Ly93d3cudzMub3JnLzE5OTkvMDIvMjItcmRmLXN5bnRheC1ucyMiPgogIDxyZGY6RGVzY3JpcHRpb24gcmRmOmFib3V0PSIiCiAgICB4bWxuczp4bXBNTT0iaHR0cDovL25zLmFkb2JlLmNvbS94YXAvMS4wL21tLyIKICAgIHhtbG5zOnN0RXZ0PSJodHRwOi8vbnMuYWRvYmUuY29tL3hhcC8xLjAvc1R5cGUvUmVzb3VyY2VFdmVudCMiCiAgICB4bWxuczpkYz0iaHR0cDovL3B1cmwub3JnL2RjL2VsZW1lbnRzLzEuMS8iCiAgICB4bWxuczpHSU1QPSJodHRwOi8vd3d3LmdpbXAub3JnL3htcC8iCiAgICB4bWxuczp0aWZmPSJodHRwOi8vbnMuYWRvYmUuY29tL3RpZmYvMS4wLyIKICAgIHhtbG5zOnhtcD0iaHR0cDovL25zLmFkb2JlLmNvbS94YXAvMS4wLyIKICAgeG1wTU06RG9jdW1lbnRJRD0iZ2ltcDpkb2NpZDpnaW1wOjgwYzJhZDQyLTJiNTYtNDBiYS05NWNmLTUwODMwNGNmMTBiYiIKICAgeG1wTU06SW5zdGFuY2VJRD0ieG1wLmlpZDo2NjVkZTk1MC0zNDhjLTQ1MGMtOTA2MS0zMjY4MmQwOTE5MjIiCiAgIHhtcE1NOk9yaWdpbmFsRG9jdW1lbnRJRD0ieG1wLmRpZDpmYmI0ODBhYS0zNjJiLTQwMjMtOWZlNC1hZTVlYjc5M2ZhZWYiCiAgIGRjOkZvcm1hdD0iaW1hZ2UvcG5nIgogICBHSU1QOkFQST0iMi4wIgogICBHSU1QOlBsYXRmb3JtPSJMaW51eCIKICAgR0lNUDpUaW1lU3RhbXA9IjE2OTkwMTU3Mjc5NTI3NjAiCiAgIEdJTVA6VmVyc2lvbj0iMi4xMC4zNCIKICAgdGlmZjpPcmllbnRhdGlvbj0iMSIKICAgeG1wOkNyZWF0b3JUb29sPSJHSU1QIDIuMTAiCiAgIHhtcDpNZXRhZGF0YURhdGU9IjIwMjM6MTE6MDNUMTI6NDg6NDcrMDA6MDAiCiAgIHhtcDpNb2RpZnlEYXRlPSIyMDIzOjExOjAzVDEyOjQ4OjQ3KzAwOjAwIj4KICAgPHhtcE1NOkhpc3Rvcnk+CiAgICA8cmRmOlNlcT4KICAgICA8cmRmOmxpCiAgICAgIHN0RXZ0OmFjdGlvbj0ic2F2ZWQiCiAgICAgIHN0RXZ0OmNoYW5nZWQ9Ii8iCiAgICAgIHN0RXZ0Omluc3RhbmNlSUQ9InhtcC5paWQ6ZjdjZmU0MTgtOTMwOC00YzQ4LTg5NjAtMzM3ODgzZjU1ZjZmIgogICAgICBzdEV2dDpzb2Z0d2FyZUFnZW50PSJHaW1wIDIuMTAgKExpbnV4KSIKICAgICAgc3RFdnQ6d2hlbj0iMjAyMy0xMS0wM1QxMjo0ODo0NyswMDowMCIvPgogICAgPC9yZGY6U2VxPgogICA8L3htcE1NOkhpc3Rvcnk+CiAgPC9yZGY6RGVzY3JpcHRpb24+CiA8L3JkZjpSREY+CjwveDp4bXBtZXRhPgogICAgICAgICAgICAgICAgICAgICAgICAgICAgICAgICAgICAgICAgICAgICAgICAgICAgICAgICAgICAgICAgICAgICAgICAgICAgICAgICAgICAgICAgICAgICAgICAgICAgCiAgICAgICAgICAgICAgICAgICAgICAgICAgICAgICAgICAgICAgICAgICAgICAgICAgICAgICAgICAgICAgICAgICAgICAgICAgICAgICAgICAgICAgICAgICAgICAgICAgICAKICAgICAgICAgICAgICAgICAgICAgICAgICAgICAgICAgICAgICAgICAgICAgICAgICAgICAgICAgICAgICAgICAgICAgICAgICAgICAgICAgICAgICAgICAgICAgICAgICAgIAogICAgICAgICAgICAgICAgICAgICAgICAgICAgICAgICAgICAgICAgICAgICAgICAgICAgICAgICAgICAgICAgICAgICAgICAgICAgICAgICAgICAgICAgICAgICAgICAgICAgCiAgICAgICAgICAgICAgICAgICAgICAgICAgICAgICAgICAgICAgICAgICAgICAgICAgICAgICAgICAgICAgICAgICAgICAgICAgICAgICAgICAgICAgICAgICAgICAgICAgICAKICAgICAgICAgICAgICAgICAgICAgICAgICAgICAgICAgICAgICAgICAgICAgICAgICAgICAgICAgICAgICAgICAgICAgICAgICAgICAgICAgICAgICAgICAgICAgICAgICAgIAogICAgICAgICAgICAgICAgICAgICAgICAgICAgICAgICAgICAgICAgICAgICAgICAgICAgICAgICAgICAgICAgICAgICAgICAgICAgICAgICAgICAgICAgICAgICAgICAgICAgCiAgICAgICAgICAgICAgICAgICAgICAgICAgICAgICAgICAgICAgICAgICAgICAgICAgICAgICAgICAgICAgICAgICAgICAgICAgICAgICAgICAgICAgICAgICAgICAgICAgICAKICAgICAgICAgICAgICAgICAgICAgICAgICAgICAgICAgICAgICAgICAgICAgICAgICAgICAgICAgICAgICAgICAgICAgICAgICAgICAgICAgICAgICAgICAgICAgICAgICAgIAogICAgICAgICAgICAgICAgICAgICAgICAgICAgICAgICAgICAgICAgICAgICAgICAgICAgICAgICAgICAgICAgICAgICAgICAgICAgICAgICAgICAgICAgICAgICAgICAgICAgCiAgICAgICAgICAgICAgICAgICAgICAgICAgICAgICAgICAgICAgICAgICAgICAgICAgICAgICAgICAgICAgICAgICAgICAgICAgICAgICAgICAgICAgICAgICAgICAgICAgICAKICAgICAgICAgICAgICAgICAgICAgICAgICAgICAgICAgICAgICAgICAgICAgICAgICAgICAgICAgICAgICAgICAgICAgICAgICAgICAgICAgICAgICAgICAgICAgICAgICAgIAogICAgICAgICAgICAgICAgICAgICAgICAgICAgICAgICAgICAgICAgICAgICAgICAgICAgICAgICAgICAgICAgICAgICAgICAgICAgICAgICAgICAgICAgICAgICAgICAgICAgCiAgICAgICAgICAgICAgICAgICAgICAgICAgICAgICAgICAgICAgICAgICAgICAgICAgICAgICAgICAgICAgICAgICAgICAgICAgICAgICAgICAgICAgICAgICAgICAgICAgICAKICAgICAgICAgICAgICAgICAgICAgICAgICAgICAgICAgICAgICAgICAgICAgICAgICAgICAgICAgICAgICAgICAgICAgICAgICAgICAgICAgICAgICAgICAgICAgICAgICAgIAogICAgICAgICAgICAgICAgICAgICAgICAgICAgICAgICAgICAgICAgICAgICAgICAgICAgICAgICAgICAgICAgICAgICAgICAgICAgICAgICAgICAgICAgICAgICAgICAgICAgCiAgICAgICAgICAgICAgICAgICAgICAgICAgICAgICAgICAgICAgICAgICAgICAgICAgICAgICAgICAgICAgICAgICAgICAgICAgICAgICAgICAgICAgICAgICAgICAgICAgICAKICAgICAgICAgICAgICAgICAgICAgICAgICAgICAgICAgICAgICAgICAgICAgICAgICAgICAgICAgICAgICAgICAgICAgICAgICAgICAgICAgICAgICAgICAgICAgICAgICAgIAogICAgICAgICAgICAgICAgICAgICAgICAgICAgICAgICAgICAgICAgICAgICAgICAgICAgICAgICAgICAgICAgICAgICAgICAgICAgICAgICAgICAgICAgICAgICAgICAgICAgCiAgICAgICAgICAgICAgICAgICAgICAgICAgICAgICAgICAgICAgICAgICAgICAgICAgICAgICAgICAgICAgICAgICAgICAgICAgICAgICAgICAgICAgICAgICAgICAgICAgICAKICAgICAgICAgICAgICAgICAgICAgICAgICAgCjw/eHBhY2tldCBlbmQ9InciPz4/3D9dAAAABmJLR0QAAAAAAAD5Q7t/AAAACXBIWXMAAA7EAAAOxAGVKw4bAAAAB3RJTUUH5wsDDDAv333tqwAAEgxJREFUeNrt3WtwXOV9wOF3pSPLK1uyJdlGxgj5FhJijB2akBJbCZOGQAGHISEzMMw4aZsU2rQTc8kkFGeq6bhDCQNpSpPSTIdLmmmTDk0LNpQM7bQJQ1MgBJdbSTD4hkG+SbJkayV7pe0HKDWaUuRWZ3Xes88zfJHB7+75v7vSjz27R4VKpRIAAMi8crmcJMnxf1JnKAAAkVJyAABKDgAAJQcAwGQkE74ujfY33dRqLgAAWfNX5/70inN/+fg/8ZocAECslBwAgJIDAEDJAQCg5AAAlBwAAEoOAAAlBwCg5AAAUHIAACg5AACUHACAkgMAQMkBAKDkAACUHAAASg4AACUHAICSAwBQcgAAKDkAAJQcAICSAwBAyQEAoOQAAFByAABKDgAAJQcAgJIDAFByAAAoOQAAlBwAAEoOAEDJAQCg5AAAUHIAAEoOAAAlBwCAkgMAQMkBACg5AACUHAAASg4AQMkBAKDkAABQcgAAKDkAACUHAICSAwBAyQEAKDkAAJQcAABKDgAAJQcAoOQAAMiCJOp7f/HcIVsYi1K5PoRQTMaMIjf6RhvaGo+ZQ548Njjrgy1HzMGTtNZsGWhWctPg9Iby5g3NHn+xKJfLIYQkSYwiP3VeKhWLnoO50tvb29HRYQ6epLVmz8F/P+X2VZHeeWdXAQBipeQAAJQcAABKDgAAJQcAoOQAAFByAAAoOQAAJQcAgJIDAEDJAQCg5AAAlBwAAEoOAAAlBwCg5AAAUHIAACg5AACUHACAkgMAQMkBAKDkAACUHAAASg4AACUHAICSAwBQcgAAKDkAAJQcAICSAwBAyQEAoOQAAFByAABKDgAAJQcAgJIDAFByAAAoOQAAlBwAAEoOAEDJAQCg5AAAUHIAAEoOAAAlBwCAkgMAQMkBACg5AACUHAAASg4AQMkBAKDkAABQcgAAKDkAACUHAICSAwBAyQEA1J6kXC4f//WEL7NseLwQ0b3FZuVyT21rzoyPj9vTPBkbG7OhkxxULHd1cLg4YU+9JgcAEKskSZK3fD2WxHLXm+oqE+48UTzgDCFX3z5saL7U1dXZ0zypr6+3oZMcVCx3taWpNGFPvSYHABDt/1QbQVxe6n1kw/dWT/my3/lcX+vsrhzP7bp79vyiv2Vq1/yVZbs2rFsxhQtuffner95/fkRT7RttaGscyt+j5RuXP720Y80J/ZWDgy9/9s75OTj2xwYXfLAl4j1dNb9v05VT+a3smR33/d7ffzTegQweTa7p/vEZiyutszrbW5b6Gfp2CoWCkqNKrrz77MdGGqf+R/Lhrfkuudu2L5ryNbc8uWLDuqlc8H3fuSy+yZZm5vDh8r0zN284sb9xYOjlLQM5+TG5ZaA56ju/aUoXPPPuS2Lf0B//8MMT/mTTim1Xfnj/ye2rZiRNfqq+2XJKDgCIwMbnlm98bvmbXz58yUNrz/jQzIaW2p5KJd677n1yAFC7zrvvguIfthR6wrM7N5fHRmp1DF6TAwBitvKuN94v8tLVjy7p+FAh5rg5UZXKeLx33mtyAMB/W3bHmrqewvO7HjQKJQcARGnFnRcWesLLvY/WwsEWChHnkJIDAP5ny+5YU+gJr/U9m+/DdHYVAMitk//kjEJPGBzuzesBRn09OSUHALyzOV/r+NEzD+Ty0CoVVyEBAPLu3L+9qNATSqP9OTsur8kBALWi6abWvqEdeToir8kBADWk/dbFu/Y/YQ5KDgCIUtc3P/DMzvvNQckBAFE6865PrL15xByUHAAQpUdLMws90R+FKwMDALUr9phzZWAAoKZdd88eQ1ByAECUbtu+6IVXfmgOSg4AiNLpf3H+wJHd5qDkAIAotd7SWR4fNQclBwBEqeEPGg1ByQEAsXrx1X8xhKpJjAAAqmbTim1XdO9NY+WRo4d275/xD0+vuH3nwum9qMZp3z536Cv7Z8+cH8umRH09OSUHWfHU+nu/ev/5GbxjWwaa01i2LoQL5w5l8Hi/cfnTIaw5ob8yr3npxZk8lpT2LoSQzeNdNb8vhK6MP9Ov6O5d2rE2pcXfe2o4/5fCH//Xl32HXn114MlVd62rftg1/9H8So/v60oOasnqpZdt3pDJ/1tN59vxvuu2tzcvyeRWrDnRv9DesjSbe7dj70+W/Nk5U77s4vqxzRuaM7l3zdl/pldCpWq3VZzRekbXurGeUKmMP7frgZV3ravmke7c93jXgrOj+PbrysAAQHYVCnVndK2r9IRdX/hp1W508bfOHhs/ZvhKDgByFFWhMI233jn//ZWesPt3fladm/vzh16IpXSVHADwzqp5dvXtnDLvrCM39FXhhr7w+Mry2EgEm+LsKgAwGdP7mtybmhrbqvOJhC/efSiCTfGaHAAQnUpPeFcylupNfGv3SaPHDhu1kgMApt4vNtZf2jqY6k38/vf7zVnJAUAeZOF9chP84Istqa5/87bO8Uo505vifXIAwGRk5H1yE1OmJ931n9lxX6Y3xfvkAICo9X/plfQWX33Pp0xYyQFA9DJ4dvV1c2ed8jcfezS99Q8Obc/upji7CgDE7tNr16S3+OfvbM/sgRcKhXh3TckBAG945Xe3prTy3/W3ZPaoK5VKvFum5ACANyxqX53e4r39z5uwkgMAUrT/2m0prXzL/XOyecjOrgIAOTGvZXlKK9+2fVE2D9nZVQAgP5779QdTWvloedh4lRwAxCqbVwae4L2nXpjSytv3/msWN8WVgQGAycjs9eSq4zN/2Z3FTXE9OQAgT37++X9KY9nHRhrNVskBAOlaunBtSiuPjR8zXiUHAKQoqUvrxbP9h17M2sG6CgkAkDe/tvBAGsvuHXgha0fqKiQAQN5svOTnaSx71fcvMlslBwCkq3P+WWks60MPSg4AYhXF9eRe11BfrJVNcT05AGAyavx6chndFNeTAwDyZ01xJI1lD4/sN1slBwCk6/ZPb05j2YHDr5itkgOA+ET0PrkQQnvz4jSWPTT8arY2xfvkAIDJiOt9ck2NbWks++Ke5mxtivfJAQD5Myudknv4+XebrZIDANJVbGxNY9kHX51ntkoOAOIT1/vkUrJjrD5bm+J9cgDAZLieXBY3xfvkAABQcgAAKDkAACUHAEwVn3jI4qb4xAMAMBk+8ZDFTfGJBwAAlBwAAEoOALLH++SyuCneJwcATIb3yWVxU7xPDgDQnZPUVpCzSg4AIhTX2dWR0YE0lv3I3KFsbYqzqwDAZMR1dnVoZF8ay1619vFsbYqzqwBA/gwc3pPGsks65IeSAwBS9uDPTkpj2TmzFpqtkgMA0nXNkyvSKblFZqvkAIAozWxoMQQlBwDxcWXgLG6Kz64CAJMR0WdXB47srpVN8dlVACBndu57Io1lf3PRPrNVcgBAulbf88k0lr3uwmfNVskBAFE6dcH7DUHJAQAp2jvwQkor++CqkgMA0nXNdzsMQckBAFH66wNz01j2tzv3ZvBgC4WILw2j5ACAt9i1/4mUVr7x0ix+cLVSqcS7WUoOAHiLrm9+IKWVT25babxKDgBilf3f8XBk5EDNbYrf8QAATEb2f8dD+83zUlr5qfX3ZnRT/I4HACAHBodfG00tNd/T+XETnnKJEUS2YYVUnmHL7+j2YAOogoyfXZ3ztYXpLZ7ZK8k5u0r1lCsFQwCIV5bPru45uDW9xbd+5gfZ3RRnVwGAqI1Xxk65fXV6669c/AlDVnIAELfMnl39+n0vprd4c6FSV8jue2ycXQUAJiWbZ1dfOfDU9Vvfk97626/dkelNcXYVAIjUoSN7Ov/0faneRHvzkixPwG/rAgAmFw0ZO7taGu2fe8uiVG/ixat+FMG2KDkA4B1l6uxqabS/6abWtG9l+cKPZH1TnF0FAOIyOPxaFTIuhhfknF0FAKLy3K4HUr0I8Juy/4JcCKFSqcS7lS67DwDVM+3vkxs4srv1ls4QLqrCbW27+pEQuiPYlJivQqLkAKAmjBwbPPfWxsdGOqt2i8s6uo1dyQFAfkzLJx4ODm2fd+uSEKr6a0+Hb+gPoTWOTYn5Ew9KDgCqp2pnVw8MvrR739NnfffSEEII1b6c29Ofva/YeEk0m+LsKgAwGcvuWHvx3KEpX7Y8XvePg7PKb72pEJZN12GuXHyJvVZyAJBDWwaa832Ag1/eF8KCqO5yxJ9ddRUSAGDKbP+tnzQX48q4uK9CouQAgKlx47t2Lj7pHHNQcgBAfDZd2WUISg4AiM/RjcOGoOQAgPj0Xb+rIWkyByUHAMSXca2zTzUHJQcAyDhOgOvJxbZhhbQ+KZ3GlSqPVyrXhxCKydi0zC33V28CkHFKjgiUK6n8mpdtVz+S9u85LpfLIYQkmZ6HXKHHYwdgig18ac+cWTJOyQEAsTm6cbghWWQO08775ACAE3DFvIFKT/BJ1YzwmhwAMFnP/8ZDp3dekLODKhQK8d55JQcATMqRGw42NV6Qv+OK+veuKjkA4B288LmH333KeSG0G4WSAwBiUrpxcGbDeTk+QGdXAYAc6rt+Z+vsrhBa8n2Yzq4CALmy/9pt81qWh9BlFEoOAIjDl5fvvuGT9XOaTg5huWkoOQAgAusX9H19/VDb7K4QOmvw8AuFiC+vq+QAoEY9tf7e0xZ9tKmxLYTX/6lRlcq4kgMAsm79gr5rf/Wf58857eS2lSGEEC4zk+A1OQBgkjat2HZF9940o6TQUD+zISnOSJrGynUts9tmJLOO+/dtIXzKLuSJkgOA6rm8+7WlHd3Vua1SqTQjKZr5O4r67Gqd/QMAUHIAACg5AACUHACAkgMAQMkBAKDkAACUHAAASg4AACUHAICSAwBQcgAAKDkAAJQcAICSAwBAyQEAoOQAAFByAABKDgAAJQcAgJIDAFByAAAoOQAAlBwAAP+rpFQqHf/1yNGRWO76wbG6CXe+Fhwsz0hj2dHR0bSHOTY2FkKor6+fpskV01i0Zh6BqUxvZGSklNTcU7jKRkdHU/lGNF7nwZ/l77dpPwA8U6bR3v7mCY+fpFh868O0LpqSa68fn3jna0B7MrqtPPUx1NjYmPYwy+VyCCFJklx9j6+9R+AUmjlzpgGmrbGxMZVvRHXj9i7L3299mzrhTRlujOWuntQ6NGFPnV0FAIiVkgMAUHIAACg5AACUHACAkgMAQMkBAKDkAACUHAAASg4AACUHAICSAwBQcgAAKDkAAJQcAICSAwBAyQEAoOQAAFByAABKDgAAJQcAgJIDAFByAAAoOQAAlBwAAEoOAEDJAQCg5AAAUHIAAEoOAAAlBwCAkgMAQMkBACg5AACUHAAASg4AQMkBAKDkAABQcgAAKDkAACUHAICSAwBAyQEAKDkAAJQcAABKDgAAJQcAoOQAAFByAAAoOQAAJQcAgJIDACBtiRHE5d++0pjOwt35nlulx2Nn6qdXKpWKxeL/Y+ElZpu2xSedc0IP/t7e3o6Ojkn8h/U1/uD3/Zbs8JocAICSAwBAyQEAoOQAAJQcAABKDgAAJQcAoOQAAFByAAAoOQAAlBwAgJIDAEDJAQCg5AAAlBwAAEoOAAAlBwCAkgMAUHIAACg5AACUHACAkgMAQMkBAKDkAABQcgAASg4AACUHAICSAwBQcgAAKDkAAJQcAABKDgBAyQEAoOQAAFByAABKDgAAJQcAgJIDAEDJAQAoOQAAlBwAAEoOAEDJAQCg5AAAUHIAALydJN67/h/HkkKPHfRgYxoVjSB3OozAk7QmrYr3rntNDgBAyQEAoOQAAFByAABKDgAAJQcAgJIDAFByAAAoOQAAlBwAAEoOAEDJAQCg5AAAUHIAAEoOAAAlBwCAkgMAQMkBACg5AACUHAAASg4AQMkBAKDkAABQcgAAKDkAACUHAICSAwBAyQEAKDkAAJQcAABKDgAAJQcAoOQAAFByAAAoOQAAJQcAgJIDAEDJAQCg5AAAlBwAAEoOAAAlBwCg5AAAUHIAACg5AACUHACAkgMAQMkBAKDkAACUHAAASg4AACUHAICSAwBQcgAAKDkAAP7vkt7e3uO/Lo+PfGx2w/Tep31HZ7xWTkqVQrFQsUO5Ua4UQgiJPc0RT9L82T9eN79u3Bw8ScnsT9LTOw5PKLdCpZLRPS6VSsVi0bbl5/FXLocQkiQxivz8kPAkzZ3e3t6Ojg5z8CQlop+kzq4CAMRKyQEAKDkAAKrrPwEwM4DQ4hLZGQAAAABJRU5ErkJggg==;fontFamily=JetBrains Mono;fontSource=https%3A%2F%2Ffonts.googleapis.com%2Fcss%3Ffamily%3DJetBrains%2BMono;" vertex="1" parent="1">
          <mxGeometry x="960" y="710" width="40" height="20.93" as="geometry" />
        </mxCell>
        <mxCell id="YdkBwuoA39NBtErjTNVp-82" value="&lt;div style=&quot;font-size: 18px;&quot;&gt;&lt;font color=&quot;#007fff&quot;&gt;&lt;b&gt;Front-End&lt;/b&gt;&lt;/font&gt;&lt;/div&gt;&lt;div style=&quot;font-size: 18px;&quot;&gt;&lt;font color=&quot;#007fff&quot;&gt;&lt;br&gt;&lt;/font&gt;&lt;/div&gt;&lt;div style=&quot;font-size: 18px;&quot;&gt;&lt;font color=&quot;#007fff&quot;&gt;&lt;br&gt;&lt;/font&gt;&lt;/div&gt;&lt;div style=&quot;font-size: 18px;&quot;&gt;&lt;font color=&quot;#007fff&quot;&gt;&lt;br&gt;&lt;/font&gt;&lt;/div&gt;&lt;div style=&quot;font-size: 18px;&quot;&gt;&lt;font color=&quot;#007fff&quot;&gt;&lt;br&gt;&lt;/font&gt;&lt;/div&gt;" style="rounded=1;whiteSpace=wrap;html=1;fillColor=#dae8fc;strokeColor=#007FFF;strokeWidth=2;labelBackgroundColor=none;fontStyle=0;fontSize=18;fontFamily=JetBrains Mono;fontSource=https%3A%2F%2Ffonts.googleapis.com%2Fcss%3Ffamily%3DJetBrains%2BMono;verticalAlign=top;" vertex="1" parent="1">
          <mxGeometry x="605" y="420" width="510" height="150" as="geometry" />
        </mxCell>
        <mxCell id="YdkBwuoA39NBtErjTNVp-84" value="&lt;font color=&quot;#000000&quot;&gt;Web App&lt;/font&gt;" style="rounded=1;whiteSpace=wrap;html=1;fillColor=default;strokeColor=#007FFF;strokeWidth=2;fontColor=#7AA116;labelBackgroundColor=none;fontStyle=0;fontSize=18;fontFamily=JetBrains Mono;fontSource=https%3A%2F%2Ffonts.googleapis.com%2Fcss%3Ffamily%3DJetBrains%2BMono;" vertex="1" parent="1">
          <mxGeometry x="635" y="455" width="450" height="85" as="geometry" />
        </mxCell>
        <mxCell id="YdkBwuoA39NBtErjTNVp-86" value="" style="shape=image;verticalLabelPosition=bottom;labelBackgroundColor=default;verticalAlign=top;aspect=fixed;imageAspect=0;image=data:image/png,iVBORw0KGgoAAAANSUhEUgAAA0MAAAG1CAIAAAC09riVAAAA0GVYSWZJSSoACAAAAAoAAAEEAAEAAABDAwAAAQEEAAEAAAC1AQAAAgEDAAMAAACGAAAAEgEDAAEAAAABAAAAGgEFAAEAAACMAAAAGwEFAAEAAACUAAAAKAEDAAEAAAADAAAAMQECAA0AAACcAAAAMgECABQAAACqAAAAaYcEAAEAAAC+AAAAAAAAAAgACAAIAL0AAAAFAAAAvQAAAAUAAABHSU1QIDIuMTAuMzQAADIwMjM6MTE6MDMgMTI6NDg6NDcAAQABoAMAAQAAAAEAAAAAAAAArmFLLAAAAYRpQ0NQSUNDIHByb2ZpbGUAAHicfZE9SMNAHMVfU0XRioMdVBwyVCcLoiKOtQpFqBBqhVYdTC79giYNSYqLo+BacPBjserg4qyrg6sgCH6AuLo4KbpIif9LCi1iPDjux7t7j7t3gFAvM83qiAGabpupRFzMZFfFrlf0IogQJjAkM8uYk6QkfMfXPQJ8vYvyLP9zf44+NWcxICASx5hh2sQbxDObtsF5nzjMirJKfE48btIFiR+5rnj8xrngssAzw2Y6NU8cJhYLbay0MSuaGvE0cUTVdMoXMh6rnLc4a+Uqa96TvzCU01eWuU5zBAksYgkSRCioooQybERp1UmxkKL9uI9/2PVL5FLIVQIjxwIq0CC7fvA/+N2tlZ+a9JJCcaDzxXE+RoGuXaBRc5zvY8dpnADBZ+BKb/krdWD2k/RaS4scAf3bwMV1S1P2gMsdYPDJkE3ZlYI0hXweeD+jb8oCA7dAz5rXW3Mfpw9AmrpK3gAHh8BYgbLXfd7d3d7bv2ea/f0AknVys4K0rIkAAA14aVRYdFhNTDpjb20uYWRvYmUueG1wAAAAAAA8P3hwYWNrZXQgYmVnaW49Iu+7vyIgaWQ9Ilc1TTBNcENlaGlIenJlU3pOVGN6a2M5ZCI/Pgo8eDp4bXBtZXRhIHhtbG5zOng9ImFkb2JlOm5zOm1ldGEvIiB4OnhtcHRrPSJYTVAgQ29yZSA0LjQuMC1FeGl2MiI+CiA8cmRmOlJERiB4bWxuczpyZGY9Imh0dHA6Ly93d3cudzMub3JnLzE5OTkvMDIvMjItcmRmLXN5bnRheC1ucyMiPgogIDxyZGY6RGVzY3JpcHRpb24gcmRmOmFib3V0PSIiCiAgICB4bWxuczp4bXBNTT0iaHR0cDovL25zLmFkb2JlLmNvbS94YXAvMS4wL21tLyIKICAgIHhtbG5zOnN0RXZ0PSJodHRwOi8vbnMuYWRvYmUuY29tL3hhcC8xLjAvc1R5cGUvUmVzb3VyY2VFdmVudCMiCiAgICB4bWxuczpkYz0iaHR0cDovL3B1cmwub3JnL2RjL2VsZW1lbnRzLzEuMS8iCiAgICB4bWxuczpHSU1QPSJodHRwOi8vd3d3LmdpbXAub3JnL3htcC8iCiAgICB4bWxuczp0aWZmPSJodHRwOi8vbnMuYWRvYmUuY29tL3RpZmYvMS4wLyIKICAgIHhtbG5zOnhtcD0iaHR0cDovL25zLmFkb2JlLmNvbS94YXAvMS4wLyIKICAgeG1wTU06RG9jdW1lbnRJRD0iZ2ltcDpkb2NpZDpnaW1wOjgwYzJhZDQyLTJiNTYtNDBiYS05NWNmLTUwODMwNGNmMTBiYiIKICAgeG1wTU06SW5zdGFuY2VJRD0ieG1wLmlpZDo2NjVkZTk1MC0zNDhjLTQ1MGMtOTA2MS0zMjY4MmQwOTE5MjIiCiAgIHhtcE1NOk9yaWdpbmFsRG9jdW1lbnRJRD0ieG1wLmRpZDpmYmI0ODBhYS0zNjJiLTQwMjMtOWZlNC1hZTVlYjc5M2ZhZWYiCiAgIGRjOkZvcm1hdD0iaW1hZ2UvcG5nIgogICBHSU1QOkFQST0iMi4wIgogICBHSU1QOlBsYXRmb3JtPSJMaW51eCIKICAgR0lNUDpUaW1lU3RhbXA9IjE2OTkwMTU3Mjc5NTI3NjAiCiAgIEdJTVA6VmVyc2lvbj0iMi4xMC4zNCIKICAgdGlmZjpPcmllbnRhdGlvbj0iMSIKICAgeG1wOkNyZWF0b3JUb29sPSJHSU1QIDIuMTAiCiAgIHhtcDpNZXRhZGF0YURhdGU9IjIwMjM6MTE6MDNUMTI6NDg6NDcrMDA6MDAiCiAgIHhtcDpNb2RpZnlEYXRlPSIyMDIzOjExOjAzVDEyOjQ4OjQ3KzAwOjAwIj4KICAgPHhtcE1NOkhpc3Rvcnk+CiAgICA8cmRmOlNlcT4KICAgICA8cmRmOmxpCiAgICAgIHN0RXZ0OmFjdGlvbj0ic2F2ZWQiCiAgICAgIHN0RXZ0OmNoYW5nZWQ9Ii8iCiAgICAgIHN0RXZ0Omluc3RhbmNlSUQ9InhtcC5paWQ6ZjdjZmU0MTgtOTMwOC00YzQ4LTg5NjAtMzM3ODgzZjU1ZjZmIgogICAgICBzdEV2dDpzb2Z0d2FyZUFnZW50PSJHaW1wIDIuMTAgKExpbnV4KSIKICAgICAgc3RFdnQ6d2hlbj0iMjAyMy0xMS0wM1QxMjo0ODo0NyswMDowMCIvPgogICAgPC9yZGY6U2VxPgogICA8L3htcE1NOkhpc3Rvcnk+CiAgPC9yZGY6RGVzY3JpcHRpb24+CiA8L3JkZjpSREY+CjwveDp4bXBtZXRhPgogICAgICAgICAgICAgICAgICAgICAgICAgICAgICAgICAgICAgICAgICAgICAgICAgICAgICAgICAgICAgICAgICAgICAgICAgICAgICAgICAgICAgICAgICAgICAgICAgICAgCiAgICAgICAgICAgICAgICAgICAgICAgICAgICAgICAgICAgICAgICAgICAgICAgICAgICAgICAgICAgICAgICAgICAgICAgICAgICAgICAgICAgICAgICAgICAgICAgICAgICAKICAgICAgICAgICAgICAgICAgICAgICAgICAgICAgICAgICAgICAgICAgICAgICAgICAgICAgICAgICAgICAgICAgICAgICAgICAgICAgICAgICAgICAgICAgICAgICAgICAgIAogICAgICAgICAgICAgICAgICAgICAgICAgICAgICAgICAgICAgICAgICAgICAgICAgICAgICAgICAgICAgICAgICAgICAgICAgICAgICAgICAgICAgICAgICAgICAgICAgICAgCiAgICAgICAgICAgICAgICAgICAgICAgICAgICAgICAgICAgICAgICAgICAgICAgICAgICAgICAgICAgICAgICAgICAgICAgICAgICAgICAgICAgICAgICAgICAgICAgICAgICAKICAgICAgICAgICAgICAgICAgICAgICAgICAgICAgICAgICAgICAgICAgICAgICAgICAgICAgICAgICAgICAgICAgICAgICAgICAgICAgICAgICAgICAgICAgICAgICAgICAgIAogICAgICAgICAgICAgICAgICAgICAgICAgICAgICAgICAgICAgICAgICAgICAgICAgICAgICAgICAgICAgICAgICAgICAgICAgICAgICAgICAgICAgICAgICAgICAgICAgICAgCiAgICAgICAgICAgICAgICAgICAgICAgICAgICAgICAgICAgICAgICAgICAgICAgICAgICAgICAgICAgICAgICAgICAgICAgICAgICAgICAgICAgICAgICAgICAgICAgICAgICAKICAgICAgICAgICAgICAgICAgICAgICAgICAgICAgICAgICAgICAgICAgICAgICAgICAgICAgICAgICAgICAgICAgICAgICAgICAgICAgICAgICAgICAgICAgICAgICAgICAgIAogICAgICAgICAgICAgICAgICAgICAgICAgICAgICAgICAgICAgICAgICAgICAgICAgICAgICAgICAgICAgICAgICAgICAgICAgICAgICAgICAgICAgICAgICAgICAgICAgICAgCiAgICAgICAgICAgICAgICAgICAgICAgICAgICAgICAgICAgICAgICAgICAgICAgICAgICAgICAgICAgICAgICAgICAgICAgICAgICAgICAgICAgICAgICAgICAgICAgICAgICAKICAgICAgICAgICAgICAgICAgICAgICAgICAgICAgICAgICAgICAgICAgICAgICAgICAgICAgICAgICAgICAgICAgICAgICAgICAgICAgICAgICAgICAgICAgICAgICAgICAgIAogICAgICAgICAgICAgICAgICAgICAgICAgICAgICAgICAgICAgICAgICAgICAgICAgICAgICAgICAgICAgICAgICAgICAgICAgICAgICAgICAgICAgICAgICAgICAgICAgICAgCiAgICAgICAgICAgICAgICAgICAgICAgICAgICAgICAgICAgICAgICAgICAgICAgICAgICAgICAgICAgICAgICAgICAgICAgICAgICAgICAgICAgICAgICAgICAgICAgICAgICAKICAgICAgICAgICAgICAgICAgICAgICAgICAgICAgICAgICAgICAgICAgICAgICAgICAgICAgICAgICAgICAgICAgICAgICAgICAgICAgICAgICAgICAgICAgICAgICAgICAgIAogICAgICAgICAgICAgICAgICAgICAgICAgICAgICAgICAgICAgICAgICAgICAgICAgICAgICAgICAgICAgICAgICAgICAgICAgICAgICAgICAgICAgICAgICAgICAgICAgICAgCiAgICAgICAgICAgICAgICAgICAgICAgICAgICAgICAgICAgICAgICAgICAgICAgICAgICAgICAgICAgICAgICAgICAgICAgICAgICAgICAgICAgICAgICAgICAgICAgICAgICAKICAgICAgICAgICAgICAgICAgICAgICAgICAgICAgICAgICAgICAgICAgICAgICAgICAgICAgICAgICAgICAgICAgICAgICAgICAgICAgICAgICAgICAgICAgICAgICAgICAgIAogICAgICAgICAgICAgICAgICAgICAgICAgICAgICAgICAgICAgICAgICAgICAgICAgICAgICAgICAgICAgICAgICAgICAgICAgICAgICAgICAgICAgICAgICAgICAgICAgICAgCiAgICAgICAgICAgICAgICAgICAgICAgICAgICAgICAgICAgICAgICAgICAgICAgICAgICAgICAgICAgICAgICAgICAgICAgICAgICAgICAgICAgICAgICAgICAgICAgICAgICAKICAgICAgICAgICAgICAgICAgICAgICAgICAgCjw/eHBhY2tldCBlbmQ9InciPz4/3D9dAAAABmJLR0QAAAAAAAD5Q7t/AAAACXBIWXMAAA7EAAAOxAGVKw4bAAAAB3RJTUUH5wsDDDAv333tqwAAEgxJREFUeNrt3WtwXOV9wOF3pSPLK1uyJdlGxgj5FhJijB2akBJbCZOGQAGHISEzMMw4aZsU2rQTc8kkFGeq6bhDCQNpSpPSTIdLmmmTDk0LNpQM7bQJQ1MgBJdbSTD4hkG+SbJkayV7pe0HKDWaUuRWZ3Xes88zfJHB7+75v7vSjz27R4VKpRIAAMi8crmcJMnxf1JnKAAAkVJyAABKDgAAJQcAwGQkE74ujfY33dRqLgAAWfNX5/70inN/+fg/8ZocAECslBwAgJIDAEDJAQCg5AAAlBwAAEoOAAAlBwCg5AAAUHIAACg5AACUHACAkgMAQMkBAKDkAACUHAAASg4AACUHAICSAwBQcgAAKDkAAJQcAICSAwBAyQEAoOQAAFByAABKDgAAJQcAgJIDAFByAAAoOQAAlBwAAEoOAEDJAQCg5AAAUHIAAEoOAAAlBwCAkgMAQMkBACg5AACUHAAASg4AQMkBAKDkAABQcgAAKDkAACUHAICSAwBAyQEAKDkAAJQcAABKDgAAJQcAoOQAAMiCJOp7f/HcIVsYi1K5PoRQTMaMIjf6RhvaGo+ZQ548Njjrgy1HzMGTtNZsGWhWctPg9Iby5g3NHn+xKJfLIYQkSYwiP3VeKhWLnoO50tvb29HRYQ6epLVmz8F/P+X2VZHeeWdXAQBipeQAAJQcAABKDgAAJQcAoOQAAFByAAAoOQAAJQcAgJIDAEDJAQCg5AAAlBwAAEoOAAAlBwCg5AAAUHIAACg5AACUHACAkgMAQMkBAKDkAACUHAAASg4AACUHAICSAwBQcgAAKDkAAJQcAICSAwBAyQEAoOQAAFByAABKDgAAJQcAgJIDAFByAAAoOQAAlBwAAEoOAEDJAQCg5AAAUHIAAEoOAAAlBwCAkgMAQMkBACg5AACUHAAASg4AQMkBAKDkAABQcgAAKDkAACUHAICSAwBAyQEA1J6kXC4f//WEL7NseLwQ0b3FZuVyT21rzoyPj9vTPBkbG7OhkxxULHd1cLg4YU+9JgcAEKskSZK3fD2WxHLXm+oqE+48UTzgDCFX3z5saL7U1dXZ0zypr6+3oZMcVCx3taWpNGFPvSYHABDt/1QbQVxe6n1kw/dWT/my3/lcX+vsrhzP7bp79vyiv2Vq1/yVZbs2rFsxhQtuffner95/fkRT7RttaGscyt+j5RuXP720Y80J/ZWDgy9/9s75OTj2xwYXfLAl4j1dNb9v05VT+a3smR33/d7ffzTegQweTa7p/vEZiyutszrbW5b6Gfp2CoWCkqNKrrz77MdGGqf+R/Lhrfkuudu2L5ryNbc8uWLDuqlc8H3fuSy+yZZm5vDh8r0zN284sb9xYOjlLQM5+TG5ZaA56ju/aUoXPPPuS2Lf0B//8MMT/mTTim1Xfnj/ye2rZiRNfqq+2XJKDgCIwMbnlm98bvmbXz58yUNrz/jQzIaW2p5KJd677n1yAFC7zrvvguIfthR6wrM7N5fHRmp1DF6TAwBitvKuN94v8tLVjy7p+FAh5rg5UZXKeLx33mtyAMB/W3bHmrqewvO7HjQKJQcARGnFnRcWesLLvY/WwsEWChHnkJIDAP5ny+5YU+gJr/U9m+/DdHYVAMitk//kjEJPGBzuzesBRn09OSUHALyzOV/r+NEzD+Ty0CoVVyEBAPLu3L+9qNATSqP9OTsur8kBALWi6abWvqEdeToir8kBADWk/dbFu/Y/YQ5KDgCIUtc3P/DMzvvNQckBAFE6865PrL15xByUHAAQpUdLMws90R+FKwMDALUr9phzZWAAoKZdd88eQ1ByAECUbtu+6IVXfmgOSg4AiNLpf3H+wJHd5qDkAIAotd7SWR4fNQclBwBEqeEPGg1ByQEAsXrx1X8xhKpJjAAAqmbTim1XdO9NY+WRo4d275/xD0+vuH3nwum9qMZp3z536Cv7Z8+cH8umRH09OSUHWfHU+nu/ev/5GbxjWwaa01i2LoQL5w5l8Hi/cfnTIaw5ob8yr3npxZk8lpT2LoSQzeNdNb8vhK6MP9Ov6O5d2rE2pcXfe2o4/5fCH//Xl32HXn114MlVd62rftg1/9H8So/v60oOasnqpZdt3pDJ/1tN59vxvuu2tzcvyeRWrDnRv9DesjSbe7dj70+W/Nk5U77s4vqxzRuaM7l3zdl/pldCpWq3VZzRekbXurGeUKmMP7frgZV3ravmke7c93jXgrOj+PbrysAAQHYVCnVndK2r9IRdX/hp1W508bfOHhs/ZvhKDgByFFWhMI233jn//ZWesPt3fladm/vzh16IpXSVHADwzqp5dvXtnDLvrCM39FXhhr7w+Mry2EgEm+LsKgAwGdP7mtybmhrbqvOJhC/efSiCTfGaHAAQnUpPeFcylupNfGv3SaPHDhu1kgMApt4vNtZf2jqY6k38/vf7zVnJAUAeZOF9chP84Istqa5/87bO8Uo505vifXIAwGRk5H1yE1OmJ931n9lxX6Y3xfvkAICo9X/plfQWX33Pp0xYyQFA9DJ4dvV1c2ed8jcfezS99Q8Obc/upji7CgDE7tNr16S3+OfvbM/sgRcKhXh3TckBAG945Xe3prTy3/W3ZPaoK5VKvFum5ACANyxqX53e4r39z5uwkgMAUrT/2m0prXzL/XOyecjOrgIAOTGvZXlKK9+2fVE2D9nZVQAgP5779QdTWvloedh4lRwAxCqbVwae4L2nXpjSytv3/msWN8WVgQGAycjs9eSq4zN/2Z3FTXE9OQAgT37++X9KY9nHRhrNVskBAOlaunBtSiuPjR8zXiUHAKQoqUvrxbP9h17M2sG6CgkAkDe/tvBAGsvuHXgha0fqKiQAQN5svOTnaSx71fcvMlslBwCkq3P+WWks60MPSg4AYhXF9eRe11BfrJVNcT05AGAyavx6chndFNeTAwDyZ01xJI1lD4/sN1slBwCk6/ZPb05j2YHDr5itkgOA+ET0PrkQQnvz4jSWPTT8arY2xfvkAIDJiOt9ck2NbWks++Ke5mxtivfJAQD5Myudknv4+XebrZIDANJVbGxNY9kHX51ntkoOAOIT1/vkUrJjrD5bm+J9cgDAZLieXBY3xfvkAABQcgAAKDkAACUHAEwVn3jI4qb4xAMAMBk+8ZDFTfGJBwAAlBwAAEoOALLH++SyuCneJwcATIb3yWVxU7xPDgDQnZPUVpCzSg4AIhTX2dWR0YE0lv3I3KFsbYqzqwDAZMR1dnVoZF8ay1619vFsbYqzqwBA/gwc3pPGsks65IeSAwBS9uDPTkpj2TmzFpqtkgMA0nXNkyvSKblFZqvkAIAozWxoMQQlBwDxcWXgLG6Kz64CAJMR0WdXB47srpVN8dlVACBndu57Io1lf3PRPrNVcgBAulbf88k0lr3uwmfNVskBAFE6dcH7DUHJAQAp2jvwQkor++CqkgMA0nXNdzsMQckBAFH66wNz01j2tzv3ZvBgC4WILw2j5ACAt9i1/4mUVr7x0ix+cLVSqcS7WUoOAHiLrm9+IKWVT25babxKDgBilf3f8XBk5EDNbYrf8QAATEb2f8dD+83zUlr5qfX3ZnRT/I4HACAHBodfG00tNd/T+XETnnKJEUS2YYVUnmHL7+j2YAOogoyfXZ3ztYXpLZ7ZK8k5u0r1lCsFQwCIV5bPru45uDW9xbd+5gfZ3RRnVwGAqI1Xxk65fXV6669c/AlDVnIAELfMnl39+n0vprd4c6FSV8jue2ycXQUAJiWbZ1dfOfDU9Vvfk97626/dkelNcXYVAIjUoSN7Ov/0faneRHvzkixPwG/rAgAmFw0ZO7taGu2fe8uiVG/ixat+FMG2KDkA4B1l6uxqabS/6abWtG9l+cKPZH1TnF0FAOIyOPxaFTIuhhfknF0FAKLy3K4HUr0I8Juy/4JcCKFSqcS7lS67DwDVM+3vkxs4srv1ls4QLqrCbW27+pEQuiPYlJivQqLkAKAmjBwbPPfWxsdGOqt2i8s6uo1dyQFAfkzLJx4ODm2fd+uSEKr6a0+Hb+gPoTWOTYn5Ew9KDgCqp2pnVw8MvrR739NnfffSEEII1b6c29Ofva/YeEk0m+LsKgAwGcvuWHvx3KEpX7Y8XvePg7PKb72pEJZN12GuXHyJvVZyAJBDWwaa832Ag1/eF8KCqO5yxJ9ddRUSAGDKbP+tnzQX48q4uK9CouQAgKlx47t2Lj7pHHNQcgBAfDZd2WUISg4AiM/RjcOGoOQAgPj0Xb+rIWkyByUHAMSXca2zTzUHJQcAyDhOgOvJxbZhhbQ+KZ3GlSqPVyrXhxCKydi0zC33V28CkHFKjgiUK6n8mpdtVz+S9u85LpfLIYQkmZ6HXKHHYwdgig18ac+cWTJOyQEAsTm6cbghWWQO08775ACAE3DFvIFKT/BJ1YzwmhwAMFnP/8ZDp3dekLODKhQK8d55JQcATMqRGw42NV6Qv+OK+veuKjkA4B288LmH333KeSG0G4WSAwBiUrpxcGbDeTk+QGdXAYAc6rt+Z+vsrhBa8n2Yzq4CALmy/9pt81qWh9BlFEoOAIjDl5fvvuGT9XOaTg5huWkoOQAgAusX9H19/VDb7K4QOmvw8AuFiC+vq+QAoEY9tf7e0xZ9tKmxLYTX/6lRlcq4kgMAsm79gr5rf/Wf58857eS2lSGEEC4zk+A1OQBgkjat2HZF9940o6TQUD+zISnOSJrGynUts9tmJLOO+/dtIXzKLuSJkgOA6rm8+7WlHd3Vua1SqTQjKZr5O4r67Gqd/QMAUHIAACg5AACUHACAkgMAQMkBAKDkAACUHAAASg4AACUHAICSAwBQcgAAKDkAAJQcAICSAwBAyQEAoOQAAFByAABKDgAAJQcAgJIDAFByAAAoOQAAlBwAAP+rpFQqHf/1yNGRWO76wbG6CXe+Fhwsz0hj2dHR0bSHOTY2FkKor6+fpskV01i0Zh6BqUxvZGSklNTcU7jKRkdHU/lGNF7nwZ/l77dpPwA8U6bR3v7mCY+fpFh868O0LpqSa68fn3jna0B7MrqtPPUx1NjYmPYwy+VyCCFJklx9j6+9R+AUmjlzpgGmrbGxMZVvRHXj9i7L3299mzrhTRlujOWuntQ6NGFPnV0FAIiVkgMAUHIAACg5AACUHACAkgMAQMkBAKDkAACUHAAASg4AACUHAICSAwBQcgAAKDkAAJQcAICSAwBAyQEAoOQAAFByAABKDgAAJQcAgJIDAFByAAAoOQAAlBwAAEoOAEDJAQCg5AAAUHIAAEoOAAAlBwCAkgMAQMkBACg5AACUHAAASg4AQMkBAKDkAABQcgAAKDkAACUHAICSAwBAyQEAKDkAAJQcAABKDgAAJQcAoOQAAFByAAAoOQAAJQcAgJIDACBtiRHE5d++0pjOwt35nlulx2Nn6qdXKpWKxeL/Y+ElZpu2xSedc0IP/t7e3o6Ojkn8h/U1/uD3/Zbs8JocAICSAwBAyQEAoOQAAJQcAABKDgAAJQcAoOQAAFByAAAoOQAAlBwAgJIDAEDJAQCg5AAAlBwAAEoOAAAlBwCAkgMAUHIAACg5AACUHACAkgMAQMkBAKDkAABQcgAASg4AACUHAICSAwBQcgAAKDkAAJQcAABKDgBAyQEAoOQAAFByAABKDgAAJQcAgJIDAEDJAQAoOQAAlBwAAEoOAEDJAQCg5AAAUHIAALydJN67/h/HkkKPHfRgYxoVjSB3OozAk7QmrYr3rntNDgBAyQEAoOQAAFByAABKDgAAJQcAgJIDAFByAAAoOQAAlBwAAEoOAEDJAQCg5AAAUHIAAEoOAAAlBwCAkgMAQMkBACg5AACUHAAASg4AQMkBAKDkAABQcgAAKDkAACUHAICSAwBAyQEAKDkAAJQcAABKDgAAJQcAoOQAAFByAAAoOQAAJQcAgJIDAEDJAQCg5AAAlBwAAEoOAAAlBwCg5AAAUHIAACg5AACUHACAkgMAQMkBAKDkAACUHAAASg4AACUHAICSAwBQcgAAKDkAAP7vkt7e3uO/Lo+PfGx2w/Tep31HZ7xWTkqVQrFQsUO5Ua4UQgiJPc0RT9L82T9eN79u3Bw8ScnsT9LTOw5PKLdCpZLRPS6VSsVi0bbl5/FXLocQkiQxivz8kPAkzZ3e3t6Ojg5z8CQlop+kzq4CAMRKyQEAKDkAAKrrPwEwM4DQ4hLZGQAAAABJRU5ErkJggg==;fontFamily=JetBrains Mono;fontSource=https%3A%2F%2Ffonts.googleapis.com%2Fcss%3Ffamily%3DJetBrains%2BMono;" vertex="1" parent="1">
          <mxGeometry x="1015.1300000000001" y="499.62" width="61.87" height="32.38" as="geometry" />
        </mxCell>
        <mxCell id="YdkBwuoA39NBtErjTNVp-89" value="&lt;font color=&quot;#000000&quot;&gt;Data&lt;br&gt;&lt;/font&gt;" style="rounded=1;whiteSpace=wrap;html=1;fillColor=default;strokeColor=#007FFF;strokeWidth=2;fontColor=#7AA116;labelBackgroundColor=none;fontStyle=0;fontSize=18;fontFamily=JetBrains Mono;fontSource=https%3A%2F%2Ffonts.googleapis.com%2Fcss%3Ffamily%3DJetBrains%2BMono;arcSize=0;" vertex="1" parent="1">
          <mxGeometry x="725" y="525" width="80" height="40" as="geometry" />
        </mxCell>
        <mxCell id="YdkBwuoA39NBtErjTNVp-90" value="&lt;font color=&quot;#000000&quot;&gt;Alerts&lt;/font&gt;" style="rounded=1;whiteSpace=wrap;html=1;fillColor=default;strokeColor=#007FFF;strokeWidth=2;fontColor=#7AA116;labelBackgroundColor=none;fontStyle=0;fontSize=18;fontFamily=JetBrains Mono;fontSource=https%3A%2F%2Ffonts.googleapis.com%2Fcss%3Ffamily%3DJetBrains%2BMono;arcSize=0;" vertex="1" parent="1">
          <mxGeometry x="915" y="525" width="80" height="40" as="geometry" />
        </mxCell>
        <mxCell id="YdkBwuoA39NBtErjTNVp-91" value="" style="shape=flexArrow;endArrow=classic;startArrow=none;html=1;rounded=0;fillColor=#FF8000;strokeColor=#B85450;entryX=0.5;entryY=1;entryDx=0;entryDy=0;startFill=0;width=6;exitX=0.5;exitY=0;exitDx=0;exitDy=0;" edge="1" parent="1" source="YdkBwuoA39NBtErjTNVp-92" target="YdkBwuoA39NBtErjTNVp-90">
          <mxGeometry width="100" height="100" relative="1" as="geometry">
            <mxPoint x="930" y="570" as="sourcePoint" />
            <mxPoint x="1040" y="770" as="targetPoint" />
          </mxGeometry>
        </mxCell>
        <mxCell id="YdkBwuoA39NBtErjTNVp-92" value="&lt;font color=&quot;#000000&quot;&gt;Output&lt;/font&gt;" style="rounded=1;whiteSpace=wrap;html=1;fillColor=default;strokeColor=#007FFF;strokeWidth=2;fontColor=#7AA116;labelBackgroundColor=none;fontStyle=0;fontSize=18;fontFamily=JetBrains Mono;fontSource=https%3A%2F%2Ffonts.googleapis.com%2Fcss%3Ffamily%3DJetBrains%2BMono;arcSize=0;" vertex="1" parent="1">
          <mxGeometry x="820" y="690.9300000000001" width="80" height="40" as="geometry" />
        </mxCell>
        <mxCell id="YdkBwuoA39NBtErjTNVp-93" value="" style="shape=flexArrow;endArrow=classic;startArrow=none;html=1;rounded=0;fillColor=#FF8000;strokeColor=#B85450;entryX=0.5;entryY=0;entryDx=0;entryDy=0;startFill=0;width=6;exitX=0.5;exitY=1;exitDx=0;exitDy=0;" edge="1" parent="1" source="YdkBwuoA39NBtErjTNVp-89" target="YdkBwuoA39NBtErjTNVp-92">
          <mxGeometry width="100" height="100" relative="1" as="geometry">
            <mxPoint x="1090" y="510" as="sourcePoint" />
            <mxPoint x="910" y="701" as="targetPoint" />
          </mxGeometry>
        </mxCell>
        <mxCell id="YdkBwuoA39NBtErjTNVp-94" value="" style="sketch=0;outlineConnect=0;fontColor=#232F3E;gradientColor=none;fillColor=#67AB9F;strokeColor=none;dashed=0;verticalLabelPosition=bottom;verticalAlign=top;align=center;html=1;fontSize=12;fontStyle=0;aspect=fixed;pointerEvents=1;shape=mxgraph.aws4.windfarm;" vertex="1" parent="1">
          <mxGeometry x="1430" y="1408" width="100" height="100" as="geometry" />
        </mxCell>
      </root>
    </mxGraphModel>
  </diagram>
</mxfile>
